<svg xmlns="http://www.w3.org/2000/svg" viewBox="0 0 20 20">
  <path fill="#49BE7F" fill-rule="evenodd" d="M8.75504113 13.1160016c-.07865873-.0439687-.15263983-.0993867-.21950722-.1662541l-2.82842713-2.8284272c-.39052429-.39052425-.39052429-1.02368923 0-1.41421352.39052429-.39052429 1.02368927-.39052429 1.41421356 0L9.3890873 10.9748737l4.2677669-4.26776692c.3905243-.39052429 1.0236893-.39052429 1.4142136 0 .3905243.39052429.3905243 1.02368927 0 1.41421356l-4.9497475 4.94974746c-.37492306.3749231-.97348743.389901-1.36627917.0449338zM10 20C4.4771525 20 0 15.5228475 0 10S4.4771525 0 10 0s10 4.4771525 10 10-4.4771525 10-10 10zm0-2c4.418278 0 8-3.581722 8-8s-3.581722-8-8-8-8 3.581722-8 8 3.581722 8 8 8z"/>
</svg>