<svg xmlns="http://www.w3.org/2000/svg" viewBox="0 0 20 20">
  <path fill="#49BE7F" fill-rule="evenodd" d="M8.75504113 13.1160016c.39279174.3449672.99135611.3299893 1.36627917-.0449338l4.9497475-4.94974746c.3905243-.39052429.3905243-1.02368927 0-1.41421356-.3905243-.39052429-1.0236893-.39052429-1.4142136 0L9.3890873 10.9748737 7.12132034 8.70710678c-.39052429-.39052429-1.02368927-.39052429-1.41421356 0-.39052429.39052429-.39052429 1.02368927 0 1.41421352l2.82842713 2.8284272c.06686739.0668674.14084849.1222854.21950722.1662541zM10 20C4.4771525 20 0 15.5228475 0 10S4.4771525 0 10 0s10 4.4771525 10 10-4.4771525 10-10 10z"/>
</svg>