<svg xmlns="http://www.w3.org/2000/svg" viewBox="0 0 31 31">
  <path fill="#BFC2C9" fill-rule="evenodd" d="M15.5 31C6.9395864 31 0 24.060414 0 15.5 0 6.9395864 6.9395864 0 15.5 0S31 6.9395864 31 15.5C31 24.060414 24.0604136 31 15.5 31zm0-3C22.4035594 28 28 22.403559 28 15.5 28 8.5964406 22.4035594 3 15.5 3S3 8.5964406 3 15.5C3 22.403559 8.5964406 28 15.5 28zm-.7050781-14.574219l-2.4345703.439453c-.0820317-.48633-.268065-.852537-.5581055-1.098632-.2900405-.246095-.6665016-.369141-1.1293945-.369141-.6152375 0-1.1059552.2124-1.472168.637207-.3662128.424807-.5493164 1.135249-.5493164 2.131348 0 1.107427.1860333 1.889646.5581055 2.346679.3720721.457034.8715789.685547 1.4985351.685547.4687524 0 .8525376-.133299 1.1513672-.399902.2988296-.266603.509765-.725095.6328125-1.375488l2.4257813.413086c-.2519544 1.113286-.735348 1.954098-1.4501954 2.52246-.7148473.568363-1.6728455.85254-2.8740234.85254-1.3652412 0-2.4536092-.43066-3.2651367-1.291993-.8115275-.861332-1.2172852-2.053703-1.2172852-3.577148 0-1.541023.4072225-2.740718 1.2216797-3.599121.8144572-.8584029 1.9160087-1.2875979 3.3046875-1.2875979 1.1367244 0 2.040524.2446265 2.7114258.7338869.6709018.48926 1.1528306 1.234858 1.4458008 2.236816zm9.2607422 0l-2.4345703.439453c-.0820317-.48633-.268065-.852537-.5581055-1.098632-.2900405-.246095-.6665016-.369141-1.1293945-.369141-.6152375 0-1.1059553.2124-1.472168.637207-.3662128.424807-.5493164 1.135249-.5493164 2.131348 0 1.107427.1860333 1.889646.5581054 2.346679.3720722.457034.8715789.685547 1.4985352.685547.4687523 0 .8525376-.133299 1.1513672-.399902.2988296-.266603.509765-.725095.6328125-1.375488l2.4257812.413086c-.2519543 1.113286-.735348 1.954098-1.4501953 2.52246-.7148473.568363-1.6728455.85254-2.8740234.85254-1.3652412 0-2.4536092-.43066-3.2651367-1.291993-.8115275-.861332-1.2172852-2.053703-1.2172852-3.577148 0-1.541023.4072225-2.740718 1.2216797-3.599121.8144572-.8584029 1.9160087-1.2875979 3.3046875-1.2875979 1.1367244 0 2.040524.2446265 2.7114258.7338869.6709018.48926 1.1528305 1.234858 1.4458008 2.236816z"/>
</svg>