<svg xmlns="http://www.w3.org/2000/svg" viewBox="0 0 20 20">
  <path fill="#4B69BF" fill-rule="evenodd" d="M11 9.60356472c.0424651.03076508.0830574.0652791.1213203.10354206l2.8284272 2.82842712c.3905243.3905243.3905243 1.0236893 0 1.4142136-.3905243.3905243-1.0236893.3905243-1.4142136 0l-2.82842712-2.8284272c-.07209107-.072091-.13087408-.1524507-.17634902-.2380261C9.21497694 10.7151887 9 10.3826996 9 10V5c0-.55228475.44771525-1 1-1 .5522847 0 1 .44771525 1 1v4.60356472zM10 20C4.4771525 20 0 15.5228475 0 10S4.4771525 0 10 0s10 4.4771525 10 10-4.4771525 10-10 10zm0-2c4.418278 0 8-3.581722 8-8s-3.581722-8-8-8-8 3.581722-8 8 3.581722 8 8 8z"/>
</svg>