<svg xmlns="http://www.w3.org/2000/svg" viewBox="0 0 496 496">
  <path fill="#4d6bbc" d="M248 496c137 0 248-111 248-248S385 0 248 0 0 111 0 248s111 248 248 248zm-103.4-76.7l53.4-53.4c31.8 13.5 68.1 13.5 100 0l53.4 53.4c-63.2 38.3-143.6 38.3-206.8 0zM328 248c0 44.1-35.9 80-80 80s-80-35.9-80-80 35.9-80 80-80 80 35.9 80 80zm91.3 103.4L365.9 298c13.5-31.8 13.5-68.1 0-100l53.4-53.4c38.3 63.2 38.3 143.6 0 206.8zM351.4 76.7L298 130.1c-31.8-13.5-68.1-13.5-100 0l-53.4-53.4c63.2-38.3 143.6-38.3 206.8 0zM76.7 144.6l53.4 53.4c-13.5 31.8-13.5 68.1 0 100l-53.4 53.4c-38.3-63.2-38.3-143.6 0-206.8z"/>
</svg>