<svg xmlns="http://www.w3.org/2000/svg" viewBox="0 0 354.1 382.7">
  <path fill="#b5bcc4" d="M44.9.1c-.7.7-.3 338.4.4 338.7.3.1 3.7.2 7.4.2H59V15h280v171.7c0 183.6.1 175.9-1.7 175.9-.5 0-1.9 1.6-1.9 2.2 0 .3-.3.6-.6.6-.8 0-2.2 1.2-2.2 1.9 0 .3-.4.5-.9.5s-1.7.3-2.6.6c-2.1.8-300.2.9-303 .2-.9-.2-2.2-.5-2.9-.6-.9-.1-1.3-.4-1.3-1 0-.4-.3-.8-.6-.8-.8 0-2.2-1.2-2.2-1.9 0-.3-.2-.5-.6-.5-.5 0-1.8-2.2-1.8-3.2 0-.2-.2-.4-.5-.4-1 0-1-2.6-1-144.3v-142h14v-15H0v150.5c0 130.1.1 150.5.6 150.5.4 0 .7.7.8 2.2.2 1.2.4 2.2.6 2.2s.4.5.4 1.2c0 .8.2 1.2.6 1.2.6 0 1 .8 1 2 0 .4.2.8.4.8s.5.4.6 1c.1.6.5 1 .8 1s.6.3.6.6.3.6.6.6.6.3.6.7.5.9 1.2 1.2c.7.3 1.2.8 1.2 1.3s.3.8.8.8c.4 0 1 .3 1.4.6.3.3.9.6 1.2.6s.6.3.6.6.5.7 1.2.8 1.2.4 1.2.6.6.4 1.4.4c.9 0 1.4.2 1.4.6 0 .8.9 1 3.6 1 1.3 0 2.4.2 2.4.4 0 .3 50.9.4 151.8.4 88.5 0 151.8-.1 151.8-.4 0-.2 1.4-.4 3-.5 2.4-.1 3.1-.3 3.4-.8.2-.4.9-.7 1.6-.7.6 0 1.2-.2 1.2-.4s.6-.5 1.4-.6c.8-.1 1.4-.5 1.4-.8s.7-.8 1.6-1.2 1.6-.9 1.6-1.2.3-.7.7-.8c1-.4 2.1-1.4 2.1-2 0-.3.3-.5.6-.5s.9-.7 1.3-1.6c.4-.9 1-1.7 1.4-1.8.5-.1.7-.6.7-1.4 0-.7.2-1.2.4-1.2s.5-.5.6-1.2.5-1.2.9-1.2c.5 0 .6-.5.6-2 0-1.1.2-2.1.4-2.2.3-.2.4-60.7.4-180.2V0H199.7C114.7 0 45 .1 44.9.3m44.4 59c-.1.1-.3 3.5-.3 7.5V74h117V59h-58.2c-32.1 0-58.4.2-58.5.3M90 141v7h221v-15H90v8m-.9 66.2c-.1.3-.1 3.4-.1 6.9v6.9h88.3l87.7.1v-14.2h-87.6c-71.2 0-87.6.1-87.8.5m.7 72.9c-.1.1-.3 3.3-.3 7v6.7h221v-13.5l-1.2-.3c-1.7-.3-219.2-.2-219.5.1"/>
</svg>
