<svg xmlns="http://www.w3.org/2000/svg" viewBox="0 0 20 20">
  <path fill="#858E9B" fill-rule="evenodd" d="M11.4142136 9.94974747l2.8284271 2.82842713c.3905243.3905243.3905243 1.0236893 0 1.4142136-.3905243.3905242-1.0236893.3905242-1.4142136 0L10 11.363961l-2.82842712 2.8284272c-.3905243.3905242-1.02368928.3905242-1.41421357 0-.39052429-.3905243-.39052429-1.0236893 0-1.4142136l2.82842713-2.82842713-2.82842713-2.82842713c-.39052429-.39052429-.39052429-1.02368927 0-1.41421356.39052429-.39052429 1.02368927-.39052429 1.41421357 0L10 8.53553391l2.8284271-2.82842713c.3905243-.39052429 1.0236893-.39052429 1.4142136 0 .3905243.39052429.3905243 1.02368927 0 1.41421356l-2.8284271 2.82842713zM10 20C4.4771525 20 0 15.5228475 0 10S4.4771525 0 10 0s10 4.4771525 10 10-4.4771525 10-10 10zm0-2c4.418278 0 8-3.581722 8-8s-3.581722-8-8-8-8 3.581722-8 8 3.581722 8 8 8z"/>
</svg>