<svg width="17" height="15" viewBox="0 0 17 15" fill="none" xmlns="http://www.w3.org/2000/svg">
<path d="M1.40304 8H13.086L9.51021 12.36C9.16202 12.7853 9.21936 13.4165 9.63827 13.77C10.0572 14.1235 10.679 14.0653 11.0272 13.64L15.9526 7.64C15.9857 7.59228 16.0154 7.54214 16.0413 7.49C16.0413 7.44 16.0905 7.41 16.1102 7.36C16.1549 7.24534 16.1782 7.12329 16.1792 7C16.1782 6.87671 16.1549 6.75466 16.1102 6.64C16.1102 6.59 16.061 6.56 16.0413 6.51C16.0154 6.45786 15.9857 6.40773 15.9526 6.36L11.0272 0.360002C10.8397 0.131462 10.5617 -0.000481118 10.2687 1.91036e-06C10.0386 -0.000454603 9.81549 0.0809208 9.63827 0.230002C9.43681 0.39955 9.31009 0.643503 9.28607 0.90803C9.26204 1.17256 9.34269 1.43592 9.51021 1.64L13.086 6H1.40304C0.859002 6 0.417969 6.44772 0.417969 7C0.417969 7.55229 0.859002 8 1.40304 8Z" fill="white"/>
</svg>
