<svg width="17" height="15" viewBox="0 0 17 15" fill="none" xmlns="http://www.w3.org/2000/svg">
<path d="M15.582 6.00128H3.89904L7.47486 1.64128C7.82305 1.21602 7.76572 0.584737 7.3468 0.231275C6.92789 -0.122187 6.30604 -0.0639842 5.95785 0.361275L1.03248 6.36128C0.999338 6.409 0.969706 6.45913 0.943819 6.51127C0.943819 6.56128 0.943819 6.59127 0.874863 6.64127C0.830213 6.75593 0.806835 6.87799 0.805908 7.00128C0.806835 7.12456 0.830213 7.24662 0.874863 7.36128C0.874863 7.41128 0.874863 7.44127 0.943819 7.49127C0.969706 7.54342 0.999338 7.59355 1.03248 7.64127L5.95785 13.6413C6.14536 13.8698 6.42336 14.0018 6.71636 14.0013C6.94652 14.0017 7.16958 13.9204 7.3468 13.7713C7.54826 13.6017 7.67498 13.3578 7.699 13.0932C7.72303 12.8287 7.64238 12.5654 7.47486 12.3613L3.89904 8.00128H15.582C16.1261 8.00128 16.5671 7.55356 16.5671 7.00128C16.5671 6.44899 16.1261 6.00128 15.582 6.00128Z" fill="white"/>
</svg>
