<svg width="60" height="64" viewBox="0 0 60 64" fill="none" xmlns="http://www.w3.org/2000/svg">
<path fill-rule="evenodd" clip-rule="evenodd" d="M58.2939 23.2562C56.4689 19.6358 53.4191 17.0957 49.7064 16.1039C49.1119 15.9451 48.506 15.8286 47.8956 15.7552C46.722 6.85558 39.8027 0 31.4674 0C23.3375 0 16.5541 6.5217 15.1358 15.1011C13.736 15.0452 12.3355 15.1982 10.9849 15.559C7.02394 16.6172 3.76983 19.3279 1.82201 23.1918C-0.101178 27.0069 -0.517942 31.4979 0.648222 35.8374C1.64938 39.5628 3.6917 42.7774 6.55417 45.134C9.31377 47.4061 12.6674 48.6735 16.0154 48.7151C15.7045 49.4286 15.5391 50.1874 15.5391 50.8938C15.539 52.5903 16.4779 53.8952 17.9893 54.2989C18.405 54.4099 18.8046 54.4661 19.1775 54.4661C19.4916 54.4661 19.7907 54.4241 20.072 54.3453C20.1867 55.1461 20.2839 56.1197 20.3794 57.077L20.3798 57.0806C20.498 58.2663 20.632 59.6099 20.8222 60.9781C20.9089 61.6017 21.4446 62.0531 22.0587 62.0531C22.1158 62.0531 22.1738 62.0493 22.232 62.0412C22.9157 61.9466 23.3931 61.3173 23.2984 60.6357C23.115 59.3178 22.9837 58.0021 22.8679 56.8406L22.8672 56.8341C22.7457 55.6158 22.6412 54.5692 22.5036 53.6989C23.146 53.5496 23.764 53.1822 24.3474 52.6003C25.3311 51.6197 25.5758 50.2887 25.0191 48.9487C24.6655 48.098 24.0341 47.3441 23.2619 46.777C24.9847 45.7564 26.4911 44.3632 27.6983 42.6628C27.7695 42.7106 27.8418 42.7576 27.9178 42.8014C28.64 43.2172 29.3472 43.4279 30.0196 43.4279C30.076 43.4279 30.1318 43.4258 30.1875 43.4229C30.0846 44.3152 29.904 45.4137 29.7171 46.548L29.7169 46.549C28.8789 51.637 27.7313 58.6045 30.3847 63.1864C30.6162 63.5862 31.0363 63.8095 31.4683 63.8095C31.6803 63.8095 31.8953 63.7557 32.092 63.6424C32.6898 63.2983 32.8946 62.5361 32.5496 61.9402C30.3426 58.1292 31.4068 51.6688 32.1838 46.9517C32.4107 45.5741 32.6033 44.4007 32.7018 43.4203C32.7723 43.425 32.8432 43.4279 32.9149 43.4279H32.9151C33.5872 43.4279 34.2945 43.217 35.0168 42.8014L35.0271 42.7952L35.0386 42.7879C35.0525 42.779 35.0662 42.7697 35.0805 42.7611C35.9743 43.7545 36.9875 44.595 38.0979 45.2671C37.4127 45.7948 36.8545 46.4803 36.5354 47.2484C36.0109 48.5111 36.2516 49.8172 37.1796 50.7423C37.69 51.2511 38.229 51.5881 38.7895 51.75C37.5369 56.7679 38.4584 60.3374 38.503 60.5037C38.6524 61.0608 39.1575 61.4284 39.7097 61.4284C39.8166 61.4284 39.9252 61.4147 40.0333 61.3857C40.7001 61.208 41.0962 60.5249 40.918 59.8602C40.9088 59.826 40.1208 56.7699 41.2052 52.3913C41.4727 52.4654 41.7567 52.5052 42.055 52.5052H42.0553C42.4099 52.5052 42.7895 52.4517 43.1839 52.3464C44.6306 51.9598 45.5294 50.7132 45.5294 49.0926C45.5294 48.4616 45.3894 47.7864 45.1261 47.1445C48.2217 47.0759 51.3144 45.8946 53.8653 43.7947C56.5449 41.5885 58.4564 38.5797 59.3935 35.0932C60.4849 31.0318 60.0945 26.8279 58.2939 23.2562ZM22.58 50.8382C22.2961 51.1211 22.0263 51.2833 21.8396 51.2833C21.7498 51.2833 21.6469 51.2445 21.5334 51.1679C21.5254 51.1625 21.5167 51.1582 21.5084 51.153C21.4849 51.1379 21.4611 51.1234 21.4367 51.11L21.4221 51.1021C21.4121 51.0969 21.4021 51.0918 21.3921 51.0867C21.3692 51.0753 21.3462 51.0646 21.3227 51.0546L21.3058 51.0476C21.2951 51.0431 21.2842 51.0388 21.2733 51.0347C21.25 51.026 21.2264 51.0181 21.2027 51.0109C21.1858 51.0057 21.169 51.0003 21.152 50.9958C21.1265 50.9891 21.1008 50.9837 21.0749 50.9786L21.0622 50.976L21.0436 50.9722L21.0288 50.9695C20.9975 50.9645 20.966 50.9614 20.9344 50.9588C20.924 50.9579 20.9138 50.9563 20.9034 50.9558C20.8172 50.9508 20.7298 50.9547 20.6428 50.9682C20.6382 50.9689 20.6335 50.9701 20.6289 50.9709C20.5913 50.9771 20.5538 50.9847 20.5165 50.9945C20.514 50.9951 20.5115 50.9953 20.509 50.9961C20.5054 50.997 20.5018 50.9981 20.4983 50.9993L20.4898 51.0022L20.4814 51.0052L20.4768 51.0067C20.449 51.0149 20.4213 51.0234 20.3936 51.0337C20.376 51.0403 20.359 51.048 20.3418 51.0554C20.325 51.0625 20.308 51.0685 20.2915 51.0763C20.2856 51.0792 20.2803 51.0827 20.2744 51.0857C20.257 51.0943 20.2404 51.1039 20.2234 51.1133C20.2134 51.1189 20.2034 51.1245 20.1936 51.1302C20.182 51.1369 20.1705 51.1437 20.1593 51.1509C20.1524 51.1552 20.1456 51.1598 20.1388 51.1644L20.118 51.1789L20.1166 51.1799C20.0945 51.1954 20.0729 51.2111 20.052 51.2276C20.0399 51.2374 20.0281 51.2473 20.0165 51.2574C19.9951 51.2759 19.9745 51.2946 19.9546 51.3141C19.944 51.3246 19.9336 51.3352 19.9235 51.346C19.9041 51.3666 19.8855 51.3877 19.8676 51.4095C19.858 51.4211 19.8486 51.4326 19.8395 51.4446C19.8225 51.4669 19.8065 51.4897 19.7911 51.513L19.7866 51.5198L19.7865 51.52L19.7864 51.5201L19.7864 51.5201C19.7794 51.5305 19.7725 51.5408 19.766 51.5514C19.751 51.576 19.7375 51.601 19.7244 51.6264C19.7221 51.6307 19.7197 51.6348 19.7173 51.6389C19.7141 51.6445 19.7109 51.65 19.7081 51.6557C19.5906 51.897 19.4616 51.9745 19.1774 51.9745C19.0228 51.9745 18.8407 51.9467 18.6362 51.8922C18.4727 51.8485 18.0388 51.7325 18.0388 50.8944C18.0388 49.8628 18.7791 48.5114 19.77 48.2466C19.8965 48.2129 20.0329 48.1957 20.1754 48.1957C21.1477 48.1957 22.3321 48.9934 22.7098 49.903C22.9185 50.4048 22.7612 50.6575 22.58 50.8382ZM27.4158 36.5471C27.4625 36.4877 27.5101 36.4288 27.559 36.3708L27.5602 36.3693L27.5621 36.3671L27.564 36.3652L27.5656 36.3639C27.5469 36.3589 27.5284 36.3533 27.5099 36.3477C27.4936 36.3428 27.4773 36.3379 27.4609 36.3334C27.33 36.2972 27.1996 36.2593 27.0699 36.2197C26.9839 36.1937 26.8982 36.1666 26.8127 36.139C26.6949 36.1006 26.5774 36.0612 26.4606 36.0201C26.3723 35.9892 26.2845 35.9574 26.1967 35.9247C26.133 35.9011 26.0697 35.8764 26.0064 35.8516L25.973 35.8386C25.7991 35.7709 25.6264 35.6999 25.4548 35.6259L25.4216 35.6115C25.3967 35.6008 25.3718 35.5901 25.3469 35.5791C22.8922 34.4978 20.6825 32.7731 18.9222 30.5213C17.5955 28.8243 16.5715 26.8852 15.8836 24.8072C15.8694 24.7643 15.8557 24.7212 15.8417 24.6784C15.8149 24.5952 15.7881 24.5121 15.7624 24.4286C15.7396 24.3552 15.7175 24.2813 15.6955 24.2074C15.6801 24.1554 15.6647 24.1033 15.6497 24.0511C15.6224 23.9566 15.5959 23.8617 15.57 23.7664L15.5461 23.6775C15.516 23.5652 15.4869 23.4525 15.4587 23.3393L15.4529 23.315C15.2612 22.5395 15.1141 21.744 15.0147 20.9315L15.0121 20.9107C14.9981 20.7953 14.9853 20.6796 14.9733 20.5636L14.9708 20.5395L14.9656 20.4897L14.9633 20.4671C14.9533 20.3664 14.9442 20.2654 14.9357 20.1641C14.9316 20.1143 14.9276 20.0645 14.9237 20.0147C14.917 19.9258 14.9105 19.8367 14.9048 19.7473C14.9007 19.6817 14.8971 19.6161 14.8936 19.5504L14.8922 19.5239C14.8885 19.456 14.8848 19.3881 14.882 19.3201C14.8783 19.2341 14.8757 19.1478 14.8731 19.0617L14.8711 18.998C14.8698 18.9597 14.8685 18.9214 14.8677 18.883C14.8645 18.7351 14.8626 18.587 14.8626 18.4387C14.8626 18.2918 14.8645 18.1442 14.8677 17.9961C14.8692 17.9255 14.8717 17.8552 14.8742 17.7848L14.8765 17.72L14.877 17.7032L14.8783 17.6609L14.8783 17.6608L14.8797 17.6106L14.8807 17.5849C14.7765 17.582 14.6724 17.5805 14.5687 17.5805C13.5785 17.5805 12.5905 17.7105 11.632 17.9666C8.36924 18.8381 5.67852 21.0913 4.05546 24.3111C2.40791 27.5795 2.05527 31.4439 3.0628 35.1924C4.80861 41.6883 10.2049 46.225 16.1856 46.225C17.1758 46.225 18.1641 46.0952 19.123 45.8389C22.0728 45.0509 24.5814 43.1079 26.2301 40.3454C26.2261 40.3173 26.2233 40.2889 26.2206 40.2605L26.2205 40.2604L26.2205 40.2604L26.2165 40.2201L26.2136 40.1933C26.2062 40.1206 26.2011 40.0474 26.198 39.9738L26.1968 39.9511L26.1968 39.9508C26.1954 39.9234 26.1939 39.8959 26.1933 39.8682C26.1932 39.8583 26.1932 39.8483 26.1933 39.8383L26.1936 39.8121L26.194 39.7791C26.194 39.4098 26.2423 39.0271 26.3475 38.636C26.4191 38.3692 26.5157 38.1015 26.6342 37.8369C26.6509 37.7991 26.6687 37.7617 26.6866 37.7242L26.697 37.7023C26.7067 37.6821 26.7161 37.6618 26.7261 37.6416C26.8804 37.3262 27.0665 37.0183 27.2821 36.724C27.2824 36.7238 27.2825 36.7236 27.2826 36.7233C27.326 36.6641 27.37 36.6052 27.4158 36.5471ZM34.1234 40.3099C34.1216 40.3129 34.1205 40.3161 34.1187 40.3193C34.008 40.5033 33.8539 40.5936 33.7672 40.6434C33.3465 40.8852 33.0717 40.9359 32.9151 40.9359C32.7801 40.9359 32.6149 40.9044 32.4121 40.6706C32.4102 40.6685 32.4083 40.6665 32.4064 40.6645L32.4027 40.6608C32.3999 40.6581 32.3971 40.6554 32.3946 40.6525C32.3741 40.63 32.3532 40.6081 32.3312 40.5872C32.3224 40.5788 32.3134 40.5707 32.3043 40.5625L32.3002 40.5588C32.2785 40.5395 32.2562 40.5209 32.2333 40.5031C32.2222 40.4945 32.2109 40.4859 32.1995 40.4777C32.1753 40.4602 32.1504 40.4439 32.125 40.4282L32.1093 40.4183C32.1039 40.415 32.0984 40.4116 32.0929 40.4085C32.064 40.3918 32.0343 40.3766 32.0042 40.3623L31.9933 40.3569L31.9883 40.3544L31.9805 40.3507C31.8237 40.28 31.6513 40.2411 31.4726 40.2406L31.4698 40.2404L31.467 40.2402C31.4623 40.2402 31.4576 40.2406 31.4529 40.2409H31.4529H31.4528C31.4504 40.2411 31.448 40.2413 31.4457 40.2414C31.444 40.2415 31.4423 40.2416 31.4406 40.2416C31.409 40.2424 31.3773 40.2436 31.3453 40.2468C31.3388 40.2475 31.3323 40.2483 31.3259 40.2492L31.3039 40.2524L31.2906 40.2543C31.2839 40.2553 31.2772 40.2561 31.2705 40.2569L31.2703 40.2569C31.259 40.2583 31.2477 40.2596 31.2363 40.2618C31.23 40.2631 31.224 40.2649 31.2178 40.2663C31.2003 40.2699 31.1831 40.2742 31.166 40.2786L31.16 40.2801C31.1363 40.2861 31.1126 40.2922 31.0895 40.2996C31.0754 40.304 31.0615 40.3091 31.0475 40.3142L31.04 40.3169C31.0149 40.326 30.99 40.3355 30.9658 40.3461C30.9515 40.3523 30.9375 40.359 30.9235 40.3657C30.8981 40.378 30.8733 40.3908 30.849 40.4046C30.8361 40.412 30.8234 40.4195 30.8107 40.4273C30.8005 40.4336 30.7905 40.4401 30.7805 40.4466C30.7668 40.4556 30.7534 40.4648 30.7401 40.4743L30.7221 40.4873L30.704 40.5008C30.6817 40.518 30.6602 40.536 30.6394 40.5547L30.6329 40.5604C30.6235 40.5685 30.6143 40.5766 30.6052 40.5852C30.5935 40.5964 30.5822 40.6078 30.5711 40.6195C30.5625 40.6286 30.554 40.6378 30.5455 40.647C30.5379 40.6553 30.5295 40.6626 30.5221 40.6712C30.3194 40.9046 30.1542 40.9362 30.0195 40.9362C29.8628 40.9362 29.5878 40.8853 29.1676 40.6434C29.0604 40.5817 28.8498 40.4587 28.7466 40.1713C28.7457 40.1687 28.7451 40.1661 28.7444 40.1635L28.7444 40.1634L28.7423 40.1557C28.6864 39.987 28.6757 39.7895 28.7031 39.5767C28.7051 39.562 28.7077 39.5466 28.7101 39.5315C28.7153 39.4971 28.7213 39.4623 28.7286 39.4272C28.7343 39.3994 28.7414 39.3704 28.7485 39.3412L28.7496 39.3369L28.7536 39.3205C28.7599 39.2946 28.7663 39.2687 28.7738 39.2425L28.7811 39.2177C28.9523 38.647 29.3499 38.0237 29.881 37.5626C29.905 37.5418 29.9281 37.52 29.9503 37.4975C30.4019 37.1238 30.9319 36.8769 31.4673 36.8769C31.748 36.8769 32.0272 36.9454 32.2944 37.064C32.301 37.0676 32.3076 37.0713 32.3141 37.075L32.3322 37.0852C32.336 37.0873 32.3398 37.0894 32.3436 37.0913C32.3462 37.0926 32.3487 37.0939 32.3513 37.0951C32.9033 37.3593 33.415 37.8373 33.7687 38.391L33.778 38.4053C33.8072 38.4514 33.8352 38.4982 33.8621 38.5453C33.8675 38.5548 33.8726 38.5642 33.8779 38.5737C33.8995 38.6123 33.9204 38.6514 33.9404 38.6905L33.9455 38.7006L33.9567 38.7224C33.9806 38.7704 34.0035 38.8186 34.0247 38.8672C34.0262 38.8704 34.0275 38.8738 34.029 38.8772C34.0507 38.9272 34.0711 38.9773 34.09 39.0276L34.0924 39.0338C34.1121 39.0872 34.1304 39.1405 34.1469 39.1942L34.1549 39.2207L34.1619 39.245L34.1624 39.2467L34.1686 39.2691L34.1771 39.3013C34.1872 39.34 34.1954 39.3771 34.2032 39.4136C34.2596 39.683 34.2835 40.0373 34.1234 40.3099ZM33.3487 34.242L33.3545 34.2411C40.2587 33.1904 45.5723 26.3939 45.5715 18.4378C45.5715 18.3623 45.5701 18.2858 45.5691 18.2095L45.5686 18.1555C45.5683 18.1301 45.5681 18.1048 45.5676 18.0795C45.5655 17.972 45.5621 17.8638 45.5579 17.7554L45.5569 17.7253C45.5474 17.4891 45.5332 17.2509 45.5146 17.0124V17.0121C44.8746 8.8849 38.8191 2.4917 31.4668 2.4917C24.2399 2.4917 18.2659 8.6683 17.4564 16.5969C17.4423 16.7363 17.4297 16.8758 17.4187 17.0153L17.4155 17.0547C17.4048 17.1943 17.3959 17.3339 17.3884 17.4733L17.3871 17.4956L17.3857 17.5225C17.3788 17.6555 17.3739 17.7883 17.37 17.9207L17.369 17.9507C17.3685 17.963 17.3681 17.9753 17.3678 17.9877C17.364 18.1383 17.3619 18.2885 17.3619 18.4378C17.3619 18.5673 17.3637 18.6963 17.3663 18.825C17.3673 18.8708 17.3688 18.9164 17.3703 18.9621L17.372 19.0135L17.373 19.0444C17.3747 19.0968 17.3763 19.1491 17.3784 19.2014C17.3822 19.2892 17.3869 19.3768 17.3919 19.4643L17.3938 19.4981C17.3949 19.5204 17.3961 19.5427 17.3975 19.565C17.4044 19.6743 17.4122 19.7834 17.421 19.8924L17.4227 19.9122C17.9131 25.8395 21.3274 30.9454 26.0911 33.1795L26.0925 33.1801C26.1872 33.2245 26.2823 33.2678 26.3781 33.3098L26.4108 33.3238C26.4982 33.3621 26.5861 33.3995 26.6744 33.4358L26.6892 33.4418L26.7054 33.4483L26.7312 33.4586C26.8132 33.4917 26.8954 33.5245 26.978 33.556L27.0152 33.5698L27.0525 33.5835C27.1709 33.6278 27.2903 33.6702 27.41 33.7109L27.4602 33.7281L27.4606 33.7282L27.4609 33.7283C27.506 33.7437 27.5511 33.7591 27.5965 33.7738C27.6245 33.7828 27.6525 33.7914 27.6806 33.8L27.6808 33.8L27.732 33.8158L27.7711 33.8279C27.8209 33.8433 27.8707 33.8588 27.9208 33.8736C27.9543 33.8835 27.988 33.8928 28.0217 33.9022L28.067 33.9148L28.0957 33.9229C28.1459 33.9369 28.1959 33.9509 28.2463 33.9643C28.2933 33.9769 28.3405 33.9886 28.3877 34.0004L28.3882 34.0005L28.405 34.0047L28.4249 34.0097L28.4255 34.0098C28.4743 34.0221 28.5231 34.0344 28.5722 34.0459C28.6226 34.0579 28.6732 34.0691 28.7239 34.0804L28.7244 34.0805L28.7258 34.0808L28.7467 34.0855C28.7968 34.0965 28.8469 34.1075 28.8972 34.1181C28.9616 34.1316 29.0262 34.1443 29.0909 34.1567C29.1342 34.165 29.1773 34.1732 29.2206 34.181C29.2924 34.1941 29.3647 34.2066 29.4371 34.2184C30.1002 34.3271 30.778 34.3843 31.4674 34.3843C31.8837 34.3843 32.2954 34.3625 32.7027 34.3224C32.8034 34.3124 32.9039 34.3016 33.0041 34.2892L33.0404 34.2845C33.1435 34.2715 33.2463 34.2576 33.3487 34.242ZM42.5366 49.9393C42.3533 49.9883 42.1913 50.0131 42.0551 50.0131C41.8227 50.0131 41.733 49.9597 41.638 49.7646L41.637 49.7628L41.6362 49.7615C41.6172 49.7229 41.5964 49.6852 41.5736 49.6487C41.5697 49.6425 41.5652 49.6369 41.5612 49.6308C41.5419 49.601 41.5216 49.5718 41.4997 49.5437C41.4922 49.5341 41.484 49.5251 41.4761 49.5156C41.4641 49.501 41.4518 49.4865 41.4392 49.4724C41.4314 49.4636 41.4234 49.455 41.4152 49.4466C41.4093 49.4404 41.4031 49.4345 41.397 49.4286L41.3867 49.4186C41.3656 49.398 41.3439 49.3778 41.3211 49.3586C41.313 49.3517 41.3045 49.345 41.296 49.3384L41.2884 49.3324C41.2659 49.3147 41.243 49.2975 41.2191 49.2813C41.2064 49.2727 41.1935 49.2644 41.1804 49.2561C41.1576 49.2418 41.1343 49.2282 41.1105 49.2153C41.0951 49.2069 41.0796 49.1989 41.064 49.1912C41.0416 49.1804 41.0188 49.1703 40.9957 49.1605C40.9777 49.1529 40.9596 49.1457 40.9412 49.139C40.937 49.1375 40.9328 49.1357 40.9287 49.134C40.9268 49.1332 40.925 49.1324 40.9231 49.1317C40.9202 49.1305 40.9173 49.1294 40.9143 49.1284C40.9 49.1235 40.8856 49.1204 40.8712 49.1162C40.8661 49.1146 40.8611 49.1129 40.8561 49.1111C40.8498 49.109 40.8434 49.1068 40.837 49.105C40.8339 49.1041 40.8308 49.1036 40.8277 49.1031L40.8276 49.1031C40.8249 49.1026 40.8222 49.1022 40.8195 49.1015C40.7735 49.0899 40.7273 49.0804 40.6811 49.0741C40.679 49.0738 40.677 49.0732 40.6748 49.0729C40.6236 49.0662 40.5725 49.0633 40.5216 49.063L40.5176 49.0627L40.5136 49.0625C40.5087 49.0625 40.504 49.0635 40.4991 49.0636C40.4466 49.0642 40.3944 49.0679 40.3429 49.0752L40.3347 49.0761L40.3223 49.0777C40.2669 49.0863 40.2126 49.0987 40.1592 49.1144C40.1536 49.1161 40.1481 49.1179 40.1426 49.1198L40.1423 49.1199L40.1313 49.1235C40.0829 49.1391 40.0354 49.1573 39.9894 49.1785C39.9854 49.1803 39.9813 49.182 39.9772 49.1837C39.975 49.1847 39.9728 49.1857 39.9706 49.1867C39.9204 49.2108 39.8724 49.2388 39.8258 49.2693C39.8236 49.2708 39.8213 49.272 39.819 49.2733C39.8168 49.2744 39.8145 49.2756 39.8124 49.2769C39.7213 49.3385 39.6415 49.3698 39.5755 49.3698C39.4264 49.3698 39.1914 49.2241 38.9468 48.9802C38.8416 48.8754 38.6459 48.6802 38.8445 48.2021C39.1848 47.3835 40.2506 46.6652 41.1256 46.6652C41.2507 46.6652 41.3702 46.6802 41.4807 46.7097C42.367 46.9465 43.0292 48.1631 43.0293 49.0927C43.0293 49.8077 42.684 49.9 42.5366 49.9393ZM44.841 44.6591C50.3717 44.6591 55.3628 40.4603 56.9786 34.4482C57.9114 30.9777 57.5854 27.4005 56.061 24.3751C54.5606 21.3987 52.0742 19.3161 49.0599 18.5109C48.734 18.4239 48.4041 18.3524 48.0716 18.2971C48.0718 18.3333 48.072 18.3694 48.072 18.4054C48.072 18.4129 48.0721 18.4203 48.0722 18.4277C48.0723 18.4311 48.0723 18.4344 48.0723 18.4378C48.0723 18.4955 48.0715 18.5529 48.0706 18.6103C48.0703 18.635 48.0699 18.6597 48.0696 18.6845C48.0688 18.7495 48.0687 18.8147 48.0673 18.8796C48.066 18.9448 48.0637 19.0097 48.0614 19.0747C48.0607 19.0948 48.06 19.115 48.0593 19.1351C48.0572 19.1998 48.0555 19.2646 48.0527 19.3294C48.0496 19.4009 48.0456 19.4721 48.0416 19.5433L48.0392 19.5868C48.0357 19.6498 48.0325 19.7131 48.0283 19.7762C48.0233 19.8555 48.0172 19.9344 48.0111 20.0132L48.0095 20.0341C48.0047 20.0966 47.9998 20.1591 47.9945 20.2215C47.9871 20.3065 47.9788 20.3912 47.9705 20.4759C47.9641 20.5394 47.9576 20.6031 47.9507 20.6666C47.9417 20.7489 47.9322 20.8312 47.9222 20.9132C47.9141 20.98 47.9057 21.0464 47.8969 21.113C47.8868 21.1906 47.8763 21.2681 47.8652 21.3454C47.8548 21.4186 47.8436 21.4916 47.8324 21.5647L47.8322 21.5658C47.8214 21.6348 47.8108 21.7038 47.7994 21.7726C47.7852 21.8591 47.7701 21.9454 47.7547 22.0316C47.7522 22.0456 47.7497 22.0596 47.7472 22.0737C47.74 22.1144 47.7328 22.1551 47.7252 22.1957C47.7044 22.307 47.6824 22.4177 47.6598 22.5284C47.6538 22.557 47.6483 22.5861 47.6423 22.6147C47.0034 25.6771 45.6654 28.5233 43.7218 30.882C41.5576 33.5085 38.793 35.3555 35.7487 36.2536C35.6717 36.2764 35.5945 36.299 35.5172 36.3205C35.4682 36.3343 35.4198 36.3498 35.3707 36.3629C35.7474 36.8067 36.0618 37.3039 36.2964 37.8292C36.2987 37.8343 36.3011 37.8394 36.3035 37.8445C36.3054 37.8485 36.3072 37.8526 36.3091 37.8566C36.3268 37.8968 36.3436 37.9374 36.3603 37.9779C36.3817 38.029 36.4019 38.0801 36.4216 38.1314C36.4311 38.1563 36.4408 38.181 36.4498 38.2061C36.4812 38.2918 36.5103 38.3777 36.5367 38.4637L36.5371 38.4648L36.5378 38.4676C36.5551 38.5239 36.5717 38.5799 36.5868 38.636C36.5903 38.649 36.5931 38.6618 36.5959 38.6746C36.5982 38.6854 36.6006 38.6961 36.6033 38.7069C36.6156 38.7555 36.6264 38.8039 36.6371 38.8522L36.6376 38.8545C36.6494 38.9086 36.6612 38.9625 36.6709 39.0163C36.679 39.0603 36.6855 39.1043 36.6919 39.1482L36.6946 39.1662C36.7019 39.2167 36.7102 39.2674 36.7157 39.3175C36.7226 39.3789 36.7268 39.4398 36.731 39.5006L36.7316 39.5089C36.7338 39.5431 36.7376 39.5775 36.7389 39.6112C36.7561 40.0013 36.7183 40.379 36.6249 40.7346C38.0869 42.5 39.9768 43.7279 42.1278 44.3024C43.0135 44.5391 43.9264 44.6591 44.841 44.6591Z" fill="white"/>
</svg>
