<svg width="19" height="20" viewBox="0 0 19 20" fill="none" xmlns="http://www.w3.org/2000/svg">
<path fill-rule="evenodd" clip-rule="evenodd" d="M14.375 2H15.375C17.0319 2 18.375 3.34315 18.375 5V17C18.375 18.6569 17.0319 20 15.375 20H3.375C1.71815 20 0.375 18.6569 0.375 17V5C0.375 3.34315 1.71815 2 3.375 2H4.375V1C4.375 0.447715 4.82272 0 5.375 0C5.92728 0 6.375 0.447715 6.375 1V2H12.375V1C12.375 0.447715 12.8227 0 13.375 0C13.9273 0 14.375 0.447715 14.375 1V2ZM4.375 14C4.375 14.5523 4.82272 15 5.375 15C5.92728 15 6.375 14.5523 6.375 14C6.375 13.4477 5.92728 13 5.375 13C4.82272 13 4.375 13.4477 4.375 14ZM13.375 15H9.375C8.82271 15 8.375 14.5523 8.375 14C8.375 13.4477 8.82271 13 9.375 13H13.375C13.9273 13 14.375 13.4477 14.375 14C14.375 14.5523 13.9273 15 13.375 15ZM2.375 9H16.375V5C16.375 4.44772 15.9273 4 15.375 4H14.375V5C14.375 5.55228 13.9273 6 13.375 6C12.8227 6 12.375 5.55228 12.375 5V4H6.375V5C6.375 5.55228 5.92728 6 5.375 6C4.82272 6 4.375 5.55228 4.375 5V4H3.375C2.82272 4 2.375 4.44772 2.375 5V9Z" fill=""/>
</svg>
