<svg width="36" height="23" viewBox="0 0 36 23" fill="none" xmlns="http://www.w3.org/2000/svg">
<path fill-rule="evenodd" clip-rule="evenodd" d="M0.958057 19.3617H2.77107C3.12157 19.3617 3.43203 19.106 3.47733 18.754C3.75523 16.5976 5.45353 15.2603 7.50793 15.2603C9.56234 15.2603 11.2606 16.5977 11.5385 18.754C11.5838 19.1061 11.894 19.3617 12.2448 19.3617H21.1377C21.5286 19.3617 21.8457 19.0404 21.8457 18.6446V0.7171C21.8457 0.321289 21.5285 0 21.1377 0H0.958057C0.566832 0 0.25 0.321289 0.25 0.7171V18.6446C0.25 19.0405 0.566832 19.3617 0.958057 19.3617ZM29.0155 3.7234H24.016C23.6398 3.7234 23.3351 4.03377 23.3351 4.41613V17.9243C23.3351 18.3067 23.6398 18.617 24.016 18.617H24.738C25.0751 18.617 25.3736 18.37 25.4172 18.03C25.6844 15.9469 27.3174 14.655 29.2929 14.655C31.2684 14.655 32.9014 15.947 33.1687 18.03C33.2122 18.3701 33.5104 18.617 33.8478 18.617H34.5691C34.945 18.617 35.25 18.3067 35.25 17.9243V11.1702C35.25 11.0074 35.1938 10.8502 35.0914 10.7258L29.5376 3.97174C29.4083 3.81452 29.217 3.7234 29.0155 3.7234ZM24.6968 9.26521V5.80158C24.6968 5.41923 25.0015 5.10886 25.3777 5.10886H28.3768C28.5787 5.10886 28.7704 5.20031 28.8997 5.35822L31.7365 8.82185C32.1058 9.27314 31.7906 9.95794 31.2133 9.95794H25.3777C25.0015 9.95794 24.6968 9.64797 24.6968 9.26521ZM29.2926 16.383C27.6501 16.383 26.3138 17.7196 26.3138 19.3617C26.3138 21.0042 27.6501 22.3404 29.2926 22.3404C30.9347 22.3404 32.2713 21.0042 32.2713 19.3617C32.2713 17.7196 30.9347 16.383 29.2926 16.383ZM29.2926 20.2378C28.8093 20.2378 28.4165 19.8449 28.4165 19.3617C28.4165 18.8785 28.8093 18.4856 29.2926 18.4856C29.7758 18.4856 30.1686 18.8785 30.1686 19.3617C30.1686 19.8449 29.7758 20.2378 29.2926 20.2378ZM7.69681 16.383C6.05433 16.383 4.71809 17.7196 4.71809 19.3617C4.71809 21.0042 6.05433 22.3404 7.69681 22.3404C9.33894 22.3404 10.6755 21.0042 10.6755 19.3617C10.6755 17.7196 9.33894 16.383 7.69681 16.383ZM7.69681 20.2378C7.21358 20.2378 6.82071 19.8449 6.82071 19.3617C6.82071 18.8785 7.21358 18.4856 7.69681 18.4856C8.18004 18.4856 8.5729 18.8785 8.5729 19.3617C8.5729 19.8449 8.18004 20.2378 7.69681 20.2378Z" fill="#ffffff"/>
</svg>
