<svg width="75" height="75" viewBox="0 0 75 75" fill="none" xmlns="http://www.w3.org/2000/svg">
<path fill-rule="evenodd" clip-rule="evenodd" d="M55.0699 39.454C54.4798 39.0606 53.7947 38.8534 53.0864 38.8534H52.3508L51.3724 42.4712C53.1446 42.6819 54.5298 44.1765 54.5298 46.0052C54.5298 47.9765 52.9258 49.5812 50.9539 49.5812H37.8422C35.8709 49.5812 34.2663 51.1858 34.2663 53.1571H44.6675C46.5952 53.1571 48.4995 53.4656 50.3282 54.0749L52.3368 54.7448C55.1212 55.6732 58.1546 55.789 61.0048 55.0772L66.5497 53.6914C67.9681 53.3369 69.4295 53.1571 70.891 53.1571H74.4669V55.541H70.891C69.6239 55.541 68.358 55.697 67.1276 56.0049L61.5827 57.3907C61.5452 57.3997 61.5071 57.4057 61.469 57.4117C61.4308 57.4176 61.3927 57.4236 61.3552 57.4326V67.4608H45.8595V74.6126H0.564453V7.86205H16.0601V0.710205H61.3552V40.7787L64.7175 43.0207C65.3077 43.4141 65.9944 43.6213 66.7022 43.6213H74.4669V46.0052H66.701C65.5213 46.0052 64.3782 45.6584 63.3946 45.0042L55.0699 39.454ZM57.2415 57.925C55.3144 57.925 53.4094 57.6165 51.5807 57.006L49.5728 56.3372C48.975 56.137 48.3663 55.988 47.7522 55.8629L46.7762 59.4784C46.6022 60.1244 46.278 60.6954 45.8595 61.1779V65.0768H58.9712V57.8191C58.3968 57.8749 57.82 57.925 57.2415 57.925ZM45.3636 55.5684L44.4755 58.8556C44.2444 59.7118 43.4639 60.3089 42.5781 60.3089H42.1916C41.1085 60.3089 40.2273 59.4284 40.2273 58.3446C40.2273 58.1706 40.25 57.9989 40.2954 57.8319L40.9141 55.541H44.6675C44.8237 55.541 44.9796 55.5492 45.1356 55.5574H45.1357H45.1357H45.1358H45.1359H45.1359H45.136L45.1363 55.5574C45.212 55.5614 45.2878 55.5654 45.3636 55.5684ZM37.9935 57.2085L38.444 55.541H34.2674C32.9526 55.541 31.8835 54.4719 31.8835 53.1571C31.8835 53.1262 31.888 53.0965 31.8926 53.0668C31.8968 53.0394 31.901 53.0122 31.9015 52.9842C31.5581 53.0867 31.2043 53.1571 30.837 53.1571C28.7842 53.1571 27.1156 51.4884 27.1156 49.4368C27.1156 48.4416 27.5032 47.5069 28.2063 46.8049L30.1979 44.8133H25.5959V42.4293H32.5807L34.9647 40.0454H25.5959V37.6614H37.4691C38.4906 36.8996 39.7122 36.4694 41.0095 36.4694H43.4755V10.246H20.828V7.86205H45.8595V28.1053L49.1729 15.8444C49.6845 13.9517 51.4108 12.63 53.371 12.63H53.7575C56.1548 12.63 58.1058 14.5803 58.1058 16.9782C58.1058 17.3635 58.0557 17.7447 57.9556 18.1143L52.9945 36.4694H53.0864C54.2668 36.4694 55.4098 36.8163 56.3929 37.4705L58.9712 39.1898V3.09415H18.4441V10.246H2.9484V72.2287H43.4755V62.5881C43.1834 62.6498 42.8854 62.6929 42.5781 62.6929H42.3493L41.9786 64.1736L39.6662 63.595L40.0405 62.1004C38.735 61.3496 37.8433 59.9562 37.8433 58.3446C37.8433 57.9593 37.8934 57.5781 37.9935 57.2085ZM47.6259 47.1972H43.1694L48.2027 28.5738L52.2914 29.9363L47.6259 47.1972ZM41.0095 38.8534C40.069 38.8534 39.1477 39.2346 38.4812 39.8999L29.8906 48.4916C29.638 48.7442 29.4984 49.0795 29.4984 49.4368C29.4984 50.1737 30.0978 50.7731 30.8358 50.7731C31.1874 50.7731 31.5319 50.63 31.781 50.3809L37.9877 44.1742C39.0604 43.1016 40.4741 42.5056 41.9821 42.4509L42.9546 38.8534H41.0095ZM39.6732 45.8597C40.1237 45.4093 40.697 45.102 41.3087 44.9419L40.6993 47.1972H38.3369L39.6732 45.8597ZM54.194 22.8927L55.6537 17.4921C55.6991 17.3239 55.7218 17.1522 55.7218 16.9782C55.7218 15.8945 54.8412 15.0139 53.7575 15.0139H53.371C52.4858 15.0139 51.7059 15.6111 51.4737 16.4672L50.1053 21.5302L54.194 22.8927ZM49.4831 23.8356L53.5718 25.1981L52.9136 27.6309L48.8249 26.2684L49.4831 23.8356ZM52.1459 46.0052C52.1459 45.3487 51.611 44.8133 50.9539 44.8133H50.7397L50.0948 47.1972H50.9539C51.611 47.1972 52.1459 46.6618 52.1459 46.0052Z" fill="black"/>
<path fill-rule="evenodd" clip-rule="evenodd" d="M4.95471 12.4175H35.6864V24.8566H4.95471V12.4175ZM7.31869 22.3688H33.3224V14.9053H7.31869V22.3688Z" fill="black"/>
<path d="M10.0767 17.5395H13.0035V20.4663H10.0767V17.5395Z" fill="black"/>
<path d="M14.4669 17.5395H17.3937V20.4663H14.4669V17.5395Z" fill="black"/>
<path d="M18.8572 17.5395H21.784V20.4663H18.8572V17.5395Z" fill="black"/>
<path d="M23.9791 17.5395H26.906V20.4663H23.9791V17.5395Z" fill="black"/>
<path d="M28.3694 17.5395H31.2962V20.4663H28.3694V17.5395Z" fill="black"/>
<path d="M18.8572 38.3931H16.5401V43.0273H7.27179V33.759H14.223V31.4419H4.95471V45.3443H18.8572V38.3931Z" fill="black"/>
<path d="M23.0139 27.7834L11.8619 38.4421L10.3102 36.9591L8.61328 38.581L11.8619 41.6858L24.7108 29.4053L23.0139 27.7834Z" fill="black"/>
<path d="M16.5401 63.5151H7.27179V54.2468H14.223V51.9297H4.95471V65.8321H18.8572V58.8809H16.5401V63.5151Z" fill="black"/>
<path d="M10.3102 56.7152L8.61328 58.3371L11.8619 61.4419L24.7108 49.1614L23.0139 47.5395L11.8619 58.1982L10.3102 56.7152Z" fill="black"/>
<path d="M38.6133 65.8322H41.5401V68.759H38.6133V65.8322Z" fill="black"/>
<path d="M23.2474 65.8322H36.4182V68.759H23.2474V65.8322Z" fill="black"/>
<path d="M25.4425 32.1736H41.5401V35.1005H25.4425V32.1736Z" fill="black"/>
</svg>
