<svg width="62" height="58" viewBox="0 0 62 58" fill="none" xmlns="http://www.w3.org/2000/svg">
<path fill-rule="evenodd" clip-rule="evenodd" d="M54.4938 2.12228C49.7835 -0.596366 43.2902 -0.710942 37.5511 1.82398C32.2408 4.17066 28.4128 9.34144 26.1501 13.2273C25.1316 12.979 24.0415 13.4632 23.5686 14.4489C23.1161 15.3914 23.3804 16.4848 24.1335 17.1381C23.9271 17.5975 23.8011 17.906 23.7535 18.0261L12.7631 42.1665C11.6549 41.656 10.3347 42.1109 9.788 43.2121C9.23113 44.3338 9.68825 45.695 10.8099 46.2529L10.8848 46.2904L8.41237 51.7244H2.2684C1.01625 51.7244 0 52.7406 0 53.9928C0 55.2449 1.01625 56.2612 2.2684 56.2612H13.6104C14.8626 56.2612 15.8788 55.2449 15.8788 53.9928C15.8788 52.7406 14.8626 51.7244 13.6104 51.7244H13.3972L14.9703 48.2685C15.1779 48.3286 15.3877 48.3694 15.5975 48.3694C16.4311 48.3694 17.2342 47.9078 17.6312 47.1105C18.1507 46.0648 17.7809 44.8205 16.8213 44.2035L28.2099 19.1888C28.5173 19.3305 28.8382 19.4009 29.1569 19.4009C30.0019 19.4009 30.8128 18.9269 31.2031 18.1136C31.7224 17.0327 31.3005 15.751 30.2729 15.168C32.2135 11.8981 35.3202 7.7707 39.3863 5.97412C43.7575 4.04257 48.7979 4.0721 52.2266 6.05122C54.748 7.50644 56.1963 9.82134 56.5342 12.9335C57.1671 18.7622 56.6305 22.6706 54.9441 24.5523C54.7887 24.7258 54.6175 24.8744 54.4428 25.015V30.0928C55.8401 29.6209 57.1818 28.8509 58.3206 27.5818C60.9428 24.6611 61.8331 19.7092 61.0449 12.4446C60.5573 7.94304 58.2299 4.27729 54.4938 2.12228ZM48.0335 40.3824C49.5136 40.3824 50.9132 40.7192 52.1733 41.3067V30.6214V26.0189V23.3694C52.1733 23.2597 52.1742 23.1605 52.175 23.0709C52.1789 22.6483 52.1809 22.437 52.0762 22.3323C51.9715 22.2277 51.7602 22.2296 51.3376 22.2335C51.248 22.2343 51.1488 22.2352 51.0392 22.2352H46.5965C45.3433 22.2352 32.7025 23.2753 29.3634 39.7812L27.2209 53.4256C27.2209 54.6788 28.236 56.2611 29.4893 56.2611H40.254C38.9587 54.5927 38.1795 52.5058 38.1795 50.2362C38.1795 44.8022 42.6007 40.3824 48.0335 40.3824ZM53.3076 44.7965C52.9593 44.4597 52.5805 44.1558 52.1734 43.8893C50.9814 43.1089 49.5602 42.6508 48.0336 42.6508C43.8506 42.6508 40.4481 46.0534 40.4481 50.2363C40.4481 52.6929 41.6276 54.8751 43.4447 56.2612C44.0776 56.7443 44.7864 57.1288 45.5521 57.3953C46.3312 57.6664 47.1638 57.8207 48.0337 57.8207C48.9037 57.8207 49.7362 57.6664 50.5154 57.3953C51.3185 57.1162 52.0613 56.7068 52.7169 56.1909C53.3339 55.7054 53.8773 55.1304 54.3185 54.4793C55.1396 53.2668 55.6206 51.806 55.6206 50.2351C55.6206 48.7494 55.185 47.3667 54.4444 46.1962C54.1184 45.6857 53.7397 45.2152 53.3076 44.7965ZM48.0335 46.4311C50.1341 46.4311 51.8377 48.1345 51.8377 50.2351C51.8377 52.3357 50.1341 54.0393 48.0335 54.0393C45.9329 54.0393 44.2295 52.3357 44.2295 50.2351C44.2295 48.1345 45.9319 46.4311 48.0335 46.4311Z" fill="white"/>
</svg>
