<svg width="12" height="12" viewBox="0 0 12 12" fill="none" xmlns="http://www.w3.org/2000/svg">
<path fill-rule="evenodd" clip-rule="evenodd" d="M0 5.9998C0 2.68632 2.68624 0 5.99984 0C9.3134 0 11.9998 2.6862 11.9998 5.9998C11.9998 9.3134 9.31336 11.9999 5.9998 11.9999C2.68624 11.9999 0 9.31328 0 5.9998ZM6.40978 6.77725C6.41182 6.76264 6.41386 6.74806 6.41416 6.73348C6.41416 6.73222 6.41434 6.73096 6.41452 6.72971C6.4147 6.72847 6.41488 6.72724 6.41488 6.726H6.4148V2.48996C6.4148 2.2608 6.229 2.075 5.99984 2.075C5.77068 2.075 5.58488 2.2608 5.58488 2.48996V6.07136L3.87624 5.2656C3.66896 5.16788 3.42164 5.2568 3.32392 5.46396C3.2262 5.67124 3.315 5.91856 3.52228 6.01628L5.82288 7.10144C5.82395 7.10193 5.82504 7.10223 5.82613 7.10253C5.82738 7.10288 5.82863 7.10322 5.82984 7.10384C5.84976 7.11276 5.87064 7.1192 5.892 7.125C5.89507 7.12584 5.89812 7.12689 5.90116 7.12795C5.90522 7.12935 5.90927 7.13075 5.91336 7.13164C5.93628 7.13652 5.96012 7.1384 5.9842 7.13932C5.98656 7.13941 5.98895 7.1398 5.99135 7.14019C5.99409 7.14063 5.99684 7.14108 5.99956 7.14108C6.02468 7.14108 6.04948 7.138 6.07396 7.13352C6.08092 7.13228 6.08768 7.1308 6.09452 7.12916C6.1136 7.12472 6.13208 7.11888 6.15032 7.11184C6.15236 7.11103 6.15442 7.11035 6.15648 7.10966C6.15923 7.10874 6.16197 7.10783 6.16464 7.10664C6.18624 7.09728 6.207 7.08588 6.2268 7.07292C6.23011 7.07072 6.23323 7.0684 6.23635 7.06608C6.23793 7.0649 6.23952 7.06372 6.24112 7.06256C6.25656 7.05156 6.27108 7.03952 6.28488 7.02636L6.28616 7.02518C6.29031 7.02136 6.29433 7.01766 6.29828 7.0136C6.31396 6.99724 6.32888 6.9798 6.34196 6.9606L6.34436 6.95748C6.35584 6.94036 6.36632 6.92228 6.37536 6.903C6.37584 6.9019 6.37618 6.90076 6.37652 6.89962C6.37693 6.89828 6.37733 6.89694 6.37796 6.89564C6.38327 6.88367 6.38726 6.87109 6.39127 6.85841C6.39189 6.85647 6.3925 6.85454 6.39312 6.8526C6.39418 6.84931 6.3953 6.84604 6.39641 6.84277C6.39939 6.83398 6.40237 6.82523 6.40432 6.8164C6.40619 6.80827 6.40711 6.79991 6.40802 6.79158C6.40841 6.78797 6.40881 6.78437 6.40928 6.7808L6.40978 6.77725Z" fill="#262626"/>
</svg>
