<svg width="24" height="24" viewBox="0 0 24 24" fill="none" xmlns="http://www.w3.org/2000/svg">
<path d="M19.07 4.93005L18.3606 5.63486L18.5064 5.78167L18.6986 5.85853L19.07 4.93005ZM6.37736 3.69218L6.93722 4.52077L6.37736 3.69218ZM19.12 4.95005L19.8248 4.24065L19.6804 4.09717L19.4914 4.02157L19.12 4.95005ZM8.11998 21.2301L8.51518 20.3114L8.50854 20.3086L8.11998 21.2301ZM7.47998 21.1401L7.36061 20.1472L7.32155 20.1519L7.28298 20.1596L7.47998 21.1401ZM3.19998 22.0001V23.0001H3.29945L3.39697 22.9805L3.19998 22.0001ZM2.99998 22.0001V21.0001H2.98724L2.9745 21.0004L2.99998 22.0001ZM2.26998 21.7101L1.56112 22.4154L1.56545 22.4197L2.26998 21.7101ZM1.99998 20.8001L2.97882 21.0047L2.97901 21.0037L1.99998 20.8001ZM2.87998 16.5701L3.85901 16.7737L3.86258 16.7566L3.86555 16.7393L2.87998 16.5701ZM2.78998 15.9301L1.87138 16.3253L1.87992 16.3451L1.88931 16.3646L2.78998 15.9301ZM19.7794 4.22525C16.0561 0.477707 10.1947 -0.0939445 5.8175 2.8636L6.93722 4.52077C10.5185 2.10097 15.3143 2.56868 18.3606 5.63486L19.7794 4.22525ZM19.4914 4.02157L19.4414 4.00157L18.6986 5.85853L18.7486 5.87853L19.4914 4.02157ZM21.1864 18.2025C24.144 13.8254 23.5723 7.96388 19.8248 4.24065L18.4152 5.65946C21.4813 8.70574 21.9491 13.5015 19.5293 17.0828L21.1864 18.2025ZM7.72478 22.1486C12.5774 24.2363 18.2289 22.5797 21.1864 18.2025L19.5293 17.0828C17.1095 20.6641 12.4855 22.0196 8.51517 20.3115L7.72478 22.1486ZM7.59935 22.1329C7.64423 22.1275 7.68975 22.1339 7.73141 22.1515L8.50854 20.3086C8.14644 20.1559 7.75078 20.1003 7.36061 20.1472L7.59935 22.1329ZM3.39697 22.9805L7.67697 22.1205L7.28298 20.1596L3.00298 21.0196L3.39697 22.9805ZM2.99998 23.0001H3.19998V21.0001H2.99998V23.0001ZM1.56545 22.4197C1.95263 22.8041 2.48004 23.0136 3.02545 22.9997L2.9745 21.0004L2.9745 21.0004L1.56545 22.4197ZM1.02114 20.5954C0.883394 21.2543 1.08633 21.9383 1.56114 22.4154L2.97881 21.0047H2.97881L1.02114 20.5954ZM1.90094 16.3664L1.02094 20.5964L2.97901 21.0037L3.85901 16.7737L1.90094 16.3664ZM1.88931 16.3646C1.89474 16.3758 1.89652 16.3885 1.8944 16.4008L3.86555 16.7393C3.93814 16.3166 3.87699 15.8818 3.69064 15.4955L1.88931 16.3646ZM5.8175 2.8636C1.44035 5.82114 -0.216319 11.4726 1.87138 16.3253L3.70857 15.5349C2.00045 11.5645 3.35591 6.94058 6.93722 4.52077L5.8175 2.8636ZM7.99998 12.0001H5.99998C5.99998 13.1046 6.89541 14.0001 7.99998 14.0001V12.0001ZM7.99998 12.0001V14.0001C9.10454 14.0001 9.99998 13.1046 9.99998 12.0001H7.99998ZM7.99998 12.0001H9.99998C9.99998 10.8955 9.10454 10.0001 7.99998 10.0001V12.0001ZM7.99998 12.0001V10.0001C6.89541 10.0001 5.99998 10.8955 5.99998 12.0001H7.99998ZM9.99998 12.0001C9.99998 13.1046 10.8954 14.0001 12 14.0001V12.0001H9.99998ZM12 10.0001C10.8954 10.0001 9.99998 10.8955 9.99998 12.0001H12V10.0001ZM14 12.0001C14 10.8955 13.1045 10.0001 12 10.0001V12.0001H14ZM12 14.0001C13.1045 14.0001 14 13.1046 14 12.0001H12V14.0001ZM16 12.0001H14C14 13.1046 14.8954 14.0001 16 14.0001V12.0001ZM16 12.0001V14.0001C17.1045 14.0001 18 13.1046 18 12.0001H16ZM16 12.0001H18C18 10.8955 17.1045 10.0001 16 10.0001V12.0001ZM16 12.0001V10.0001C14.8954 10.0001 14 10.8955 14 12.0001H16Z" fill=""/>
</svg>
