<svg width="79" height="50" viewBox="0 0 79 50" fill="none" xmlns="http://www.w3.org/2000/svg">
<path fill-rule="evenodd" clip-rule="evenodd" d="M1.57377 43H5.60347C6.38251 43 7.07258 42.4322 7.17326 41.6503C7.79094 36.8614 11.5657 33.8913 16.1319 33.8913C20.6982 33.8913 24.4729 36.8615 25.0906 41.6503C25.1913 42.4323 25.8806 43 26.6604 43H46.4262C47.295 43 48 42.2865 48 41.4074V1.59259C48 0.713544 47.2949 0 46.4262 0H1.57377C0.704211 0 0 0.713544 0 1.59259V41.4074C0 42.2866 0.704211 43 1.57377 43ZM64.3488 8H52.6C51.716 8 51 8.70853 51 9.5814V40.4186C51 41.2915 51.716 42 52.6 42H54.2969C55.0889 42 55.7905 41.4362 55.8928 40.6598C56.5208 35.9045 60.3585 32.9553 65.0008 32.9553C69.6432 32.9553 73.4809 35.9047 74.1089 40.6598C74.2112 41.4363 74.912 42 75.7048 42H77.4C78.2831 42 79 41.2915 79 40.4186V25C79 24.6284 78.868 24.2694 78.6272 23.9855L65.5759 8.56693C65.2721 8.20801 64.8224 8 64.3488 8ZM54.2 20.6512V12.7442C54.2 11.8713 54.916 11.1628 55.8 11.1628H62.848C63.3224 11.1628 63.7729 11.3716 64.0768 11.732L70.7432 19.639C71.6112 20.6693 70.8704 22.2326 69.5137 22.2326H55.8C54.916 22.2326 54.2 21.5249 54.2 20.6512ZM65.5 37C61.9159 37 59 39.9166 59 43.5C59 47.0841 61.9159 50 65.5 50C69.0834 50 72 47.0841 72 43.5C72 39.9166 69.0834 37 65.5 37ZM65.5 45.4118C64.4455 45.4118 63.5882 44.5545 63.5882 43.5C63.5882 42.4455 64.4455 41.5882 65.5 41.5882C66.5545 41.5882 67.4118 42.4455 67.4118 43.5C67.4118 44.5545 66.5545 45.4118 65.5 45.4118ZM15.5 37C11.9159 37 9 39.9166 9 43.5C9 47.0841 11.9159 50 15.5 50C19.0834 50 22 47.0841 22 43.5C22 39.9166 19.0834 37 15.5 37ZM15.5 45.4118C14.4455 45.4118 13.5882 44.5545 13.5882 43.5C13.5882 42.4455 14.4455 41.5882 15.5 41.5882C16.5545 41.5882 17.4118 42.4455 17.4118 43.5C17.4118 44.5545 16.5545 45.4118 15.5 45.4118Z" fill="white"/>
</svg>
