<svg width="12" height="12" viewBox="0 0 12 12" fill="none" xmlns="http://www.w3.org/2000/svg">
<path d="M11.7986 5.15421L9.97992 3.29791V1.15357C9.97992 0.765845 9.67209 0.451624 9.29167 0.451624C8.91212 0.451624 8.6043 0.765845 8.6043 1.15357V1.89384L7.25016 0.51163C6.58066 -0.171355 5.41663 -0.170143 4.74866 0.512866L0.201329 5.15421C-0.0671097 5.42875 -0.0671097 5.87297 0.201329 6.14709C0.469889 6.42156 0.905951 6.42156 1.17441 6.14709L5.7213 1.50562C5.86943 1.35522 6.1305 1.35522 6.27785 1.50518L10.8255 6.14709C10.9604 6.28434 11.1362 6.3526 11.3119 6.3526C11.4881 6.3526 11.6642 6.28426 11.7986 6.14709C12.0671 5.873 12.0671 5.42878 11.7986 5.15421Z" fill="#262626"/>
<path d="M6.25302 2.92229C6.11327 2.79059 5.88699 2.79059 5.74764 2.92229L1.51654 6.91056C1.44974 6.97352 1.41187 7.05948 1.41187 7.14918V10.0581C1.41187 10.7407 1.99885 11.2941 2.72276 11.2941H4.81759V8.2352H7.18261V11.2941H9.27746C10.0014 11.2941 10.5883 10.7407 10.5883 10.0581V7.14918C10.5883 7.05948 10.5508 6.97352 10.4837 6.91056L6.25302 2.92229Z" fill="#262626"/>
</svg>
