<svg width="20" height="20" viewBox="0 0 20 20" fill="none" xmlns="http://www.w3.org/2000/svg">
<path d="M14.95 19.1667C7.15777 19.1566 0.843432 12.8423 0.833332 5.05002C0.833332 2.72122 2.7212 0.833357 5.05 0.833357C5.28681 0.831553 5.52323 0.853045 5.75583 0.897523C5.9807 0.930799 6.20176 0.986064 6.41583 1.06252C6.72217 1.17001 6.94881 1.43151 7.01167 1.75002L8.2675 7.25002C8.33628 7.55336 8.24654 7.87089 8.02917 8.09336C7.91 8.22169 7.90083 8.23086 6.77333 8.81752C7.67624 10.7983 9.26043 12.389 11.2375 13.3C11.8333 12.1634 11.8425 12.1542 11.9708 12.035C12.1933 11.8176 12.5108 11.7279 12.8142 11.7967L18.3142 13.0525C18.6222 13.124 18.8717 13.3492 18.9742 13.6484C19.0515 13.8659 19.1098 14.0898 19.1483 14.3175C19.1852 14.5479 19.2036 14.7809 19.2033 15.0142C19.1681 17.3322 17.2682 19.1871 14.95 19.1667Z" fill="#676767"/>
</svg>
