<svg width="18" height="20" viewBox="0 0 18 20" fill="none" xmlns="http://www.w3.org/2000/svg">
<path fill-rule="evenodd" clip-rule="evenodd" d="M3.5697 16.5087H0.446313C0.316041 16.5087 0.20936 16.4673 0.125539 16.3834C0.0416795 16.2996 0 16.1928 0 16.0626V14.2777C0 14.148 0.0419489 14.0408 0.125539 13.9575C0.20936 13.8736 0.316079 13.8316 0.446313 13.8316H3.5697V12.1862H0.446313C0.315848 12.1862 0.209398 12.1448 0.125539 12.0609C0.0416795 11.9771 0 11.8704 0 11.7401V9.66275C0 9.54195 0.0419489 9.43738 0.125539 9.34906C0.20936 9.26078 0.316079 9.21671 0.446313 9.21671H3.56947V0.446082C3.56947 0.316541 3.61138 0.209167 3.695 0.125308C3.77883 0.0419104 3.88551 0 4.01578 0H11.5311C13.39 0 14.9076 0.567618 16.0836 1.70101C17.2594 2.83551 17.8475 4.29957 17.8475 6.09313C17.8475 7.88789 17.2594 9.35191 16.0836 10.4853C14.9074 11.6198 13.3901 12.1863 11.5311 12.1863H6.79029V13.8317H13.8319C13.9619 13.8317 14.0691 13.8736 14.1527 13.9575C14.2366 14.0409 14.2782 14.1483 14.2782 14.2778V16.0626C14.2782 16.1929 14.2366 16.2996 14.1527 16.3834C14.0689 16.4673 13.9619 16.5087 13.8319 16.5087H6.79052V19.1862C6.79052 19.3165 6.7465 19.4231 6.65817 19.5065C6.56985 19.5904 6.46529 19.6324 6.34444 19.6324H4.01601C3.88578 19.6324 3.77886 19.5904 3.69524 19.5065C3.61138 19.4231 3.5697 19.3165 3.5697 19.1862V16.5087ZM11.2522 2.97025H6.79029V9.21698H11.2522C12.2374 9.21698 13.0321 8.92892 13.6365 8.3521C14.2406 7.77644 14.5428 7.02301 14.5428 6.09336C14.5428 5.16418 14.2406 4.41098 13.6365 3.83463C13.0321 3.25831 12.2374 2.97025 11.2522 2.97025Z" fill=""/>
</svg>
