<svg width="84" height="58" viewBox="0 0 84 58" fill="none" xmlns="http://www.w3.org/2000/svg">
<path fill-rule="evenodd" clip-rule="evenodd" d="M66.5007 14C70.0901 14 73 10.8658 73 6.99991C73 3.13406 70.0899 0 66.5007 0C62.9104 0 60 3.13424 60 6.99991C59.9998 10.8658 62.9103 14 66.5007 14ZM51.7837 6H26.2164C25.5446 6 25 5.5523 25 5C25 4.4477 25.5446 4 26.2164 4H51.7837C52.4556 4 53 4.4477 53 5C53 5.5523 52.4556 6 51.7837 6ZM28.7836 18H3.21643C2.5446 18 2 17.5523 2 16.9999C2 16.4476 2.5446 16 3.21643 16H28.7836C29.4554 16 30 16.4476 30 16.9999C30 17.5523 29.4554 18 28.7836 18ZM10 30.9999C10 31.5522 10.5446 32 11.2164 32H36.7836C37.4554 32 38 31.5522 38 30.9999C38 30.4476 37.4554 30 36.7836 30H11.2164C10.5446 30 10 30.4476 10 30.9999ZM1.24492 45H24.7551C25.4426 45 26 45.4476 26 45.9999C26 46.5523 25.4426 47 24.7551 47H1.24492C0.557353 47 0 46.5523 0 45.9999C0 45.4476 0.557353 45 1.24492 45ZM62.9636 14.3124C68.5147 17.6355 73.6733 17.0054 77.5257 11.5639C80.0411 8.01268 85.9188 11.4181 83.3748 15.0103C78.4597 21.953 71.5585 24.5955 64.298 22.3522C62.0202 26.298 59.8565 30.3131 57.7784 34.3721C60.85 35.9552 64.4716 38.7459 66.337 40.2454C68.1921 41.7369 70.4648 46.7417 72.2099 50.5848C72.6523 51.5591 73.0608 52.4586 73.42 53.2074C75.3279 57.184 69.189 60.0681 67.2881 56.1083C66.9177 55.3369 66.4875 54.385 66.0261 53.3641C64.5354 50.0661 62.7195 46.0485 61.5468 45.0749C60.0106 43.7999 54.9689 40.2025 51.1228 38.8513C50.9335 38.7845 50.7609 38.7051 50.5976 38.6171C45.8896 44.6426 36.6673 47.489 28.8019 42.8536C24.6573 40.4111 28.4062 34.389 32.5632 36.8391C38.3244 40.2366 44.3203 35.8926 47.036 30.4531C49.7509 25.0135 51.675 21.1848 53.8757 17.3328C49.5777 15.9504 45.6478 17.2133 42.5571 21.5777C40.0437 25.1286 34.1646 21.7231 36.7065 18.1304C42.6883 9.68322 51.6079 7.58683 60.538 12.9326C60.7247 13.0445 61.2416 13.3357 61.7574 13.6263C62.2671 13.9135 62.7758 14.2001 62.9636 14.3124Z" fill="white"/>
</svg>
