<svg width="22" height="22" viewBox="0 0 22 22" fill="none" xmlns="http://www.w3.org/2000/svg">
<path fill-rule="evenodd" clip-rule="evenodd" d="M21.207 10.9994C21.207 11.5418 21.1638 12.0732 21.0817 12.5926C21.6636 13.5338 22.0003 14.6422 22 15.8314C22 19.2381 19.2387 22 15.8313 22C14.6425 22 13.5339 21.6625 12.5928 21.0819C12.0739 21.1638 11.5408 21.2056 10.9994 21.2056C5.36316 21.2056 0.79348 16.6374 0.79348 10.9996C0.79348 10.4573 0.837775 9.92757 0.918233 9.40729C0.336818 8.46535 0 7.35676 0 6.16797C0 2.76119 2.7616 0 6.1681 0C7.35717 0 8.4667 0.336607 9.40677 0.918265C9.92574 0.837093 10.4587 0.792543 10.9996 0.792543C16.6372 0.792543 21.207 5.36213 21.207 10.9994ZM13.9509 17.0983C14.7798 16.749 15.4141 16.2633 15.8459 15.6417C16.2787 15.021 16.4959 14.3199 16.4949 13.5403C16.4949 12.8928 16.3698 12.3426 16.1187 11.8922C15.8694 11.4424 15.5202 11.0701 15.0734 10.778C14.63 10.4851 14.0934 10.2392 13.4647 10.0353C12.8347 9.83249 12.1335 9.64636 11.3606 9.47977C10.7442 9.33477 10.3008 9.22526 10.0336 9.14951C9.76942 9.07565 9.50657 8.97299 9.24816 8.84026C8.98986 8.70958 8.78889 8.55455 8.64444 8.37563C8.5022 8.19835 8.43151 7.99105 8.43079 7.74518C8.43177 7.35282 8.63826 7.01795 9.07021 6.72932C9.49951 6.44525 10.0683 6.29998 10.7792 6.29998C11.5475 6.29835 12.0996 6.43343 12.4343 6.69291C12.778 6.95729 13.0736 7.32694 13.3204 7.80139C13.5157 8.14143 13.6962 8.3854 13.868 8.53864C14.0445 8.69705 14.299 8.77188 14.6233 8.77188C14.9832 8.77306 15.2913 8.64365 15.5322 8.3898C15.7731 8.13631 15.8967 7.84707 15.8967 7.52816C15.8967 7.18516 15.8008 6.83367 15.6102 6.47379C15.4195 6.11498 15.1185 5.77306 14.7093 5.44888C14.2976 5.12398 13.7826 4.86507 13.1648 4.66887C12.5453 4.47409 11.8135 4.3762 10.9674 4.3762C9.90947 4.3762 8.98597 4.5235 8.20154 4.81796C7.41435 5.11253 6.81064 5.53542 6.39336 6.08792C5.97588 6.63889 5.76734 7.27196 5.76734 7.97985C5.76734 8.72221 5.96488 9.34898 6.36104 9.85326C6.75637 10.3526 7.28975 10.7479 7.9595 11.0371C8.62838 11.3253 9.45434 11.5761 10.4419 11.7917C11.1774 11.9466 11.7643 12.0937 12.2014 12.2323C12.6369 12.3695 12.9877 12.5663 13.2594 12.8246C13.5287 13.0795 13.66 13.4066 13.66 13.8184C13.66 14.3347 13.4165 14.762 12.9095 15.1131C12.405 15.4612 11.7459 15.6376 10.9304 15.6376C10.3344 15.6376 9.85817 15.5509 9.50033 15.3776C9.1385 15.2048 8.85912 14.984 8.66061 14.7195C8.46087 14.4517 8.27315 14.1161 8.10032 13.7145C7.95613 13.368 7.77982 13.1053 7.56964 12.9247C7.35788 12.744 7.09779 12.6528 6.79499 12.6528C6.42533 12.6528 6.11214 12.7688 5.86898 13.0004C5.62832 13.2302 5.50469 13.5121 5.50469 13.8363C5.50469 14.3859 5.70464 14.9495 6.099 15.525C6.49254 16.1 7.00444 16.5612 7.63384 16.905C8.52174 17.385 9.64661 17.6228 11.0052 17.6228C12.1388 17.6228 13.1204 17.4485 13.9509 17.0983Z" fill="#676767"/>
</svg>
