<svg width="15" height="17" viewBox="0 0 15 17" fill="none" xmlns="http://www.w3.org/2000/svg">
<path fill-rule="evenodd" clip-rule="evenodd" d="M14.9285 6.59317C15.0557 7.02884 14.9516 7.4975 14.6567 7.81684L12.032 10.6598C11.9201 10.7812 11.8688 10.9555 11.8952 11.1265L12.515 15.1405C12.5846 15.5915 12.4211 16.0385 12.0878 16.3078C11.8994 16.4602 11.6786 16.5372 11.4569 16.5372C11.2862 16.5372 11.1146 16.4915 10.9562 16.3988L7.71174 14.5035C7.57344 14.4228 7.40844 14.4228 7.27014 14.5035L4.02594 16.3988C3.66084 16.6125 3.22734 16.5775 2.89434 16.3078C2.56104 16.0385 2.39754 15.5915 2.46714 15.1405L3.08664 11.1262C3.11304 10.9555 3.06174 10.7808 2.94984 10.6595L0.325138 7.81684C0.0302377 7.4975 -0.0738623 7.02884 0.0533378 6.59317C0.180838 6.1575 0.512938 5.8465 0.920638 5.78084L4.54824 5.19484C4.70274 5.16984 4.83654 5.06217 4.90554 4.9065L6.52764 1.25417C6.70974 0.843837 7.07934 0.588837 7.49094 0.588837C7.90284 0.588837 8.27244 0.843837 8.45454 1.25417L10.0763 4.9065C10.1453 5.06217 10.2788 5.16984 10.4333 5.19484L14.0609 5.7805C14.4689 5.8465 14.801 6.1575 14.9285 6.59317ZM11.9237 15.2532L11.3042 11.2392C11.2442 10.8515 11.3597 10.4565 11.6129 10.1822L14.2376 7.3395C14.3699 7.19617 14.4146 6.99417 14.3576 6.79917C14.3006 6.60384 14.1575 6.46984 13.9748 6.44017L10.3472 5.8545C9.99714 5.79817 9.69474 5.55417 9.53844 5.2015L7.91634 1.54917C7.83444 1.36517 7.67544 1.2555 7.49064 1.2555C7.30614 1.2555 7.14684 1.36517 7.06524 1.54917L5.44314 5.2015C5.28684 5.55417 4.98414 5.79817 4.63404 5.8545L1.00674 6.44017C0.824038 6.46984 0.680938 6.60384 0.623938 6.79917C0.566638 6.99417 0.611638 7.19617 0.743938 7.3395L3.36894 10.1825C3.62214 10.4565 3.73764 10.8518 3.67794 11.2392L3.05844 15.2532C3.02754 15.4555 3.09774 15.6482 3.24714 15.7688C3.39654 15.8892 3.58284 15.9038 3.74694 15.8092L6.99084 13.9138C7.14744 13.8225 7.31934 13.7765 7.49094 13.7765C7.66254 13.7765 7.83474 13.8225 7.99104 13.9135L11.2355 15.8092C11.399 15.9038 11.5853 15.8892 11.735 15.7688C11.8844 15.6482 11.9549 15.4552 11.9237 15.2532Z" fill="black"/>
</svg>
