<svg width="51" height="47" viewBox="0 0 51 47" fill="none" xmlns="http://www.w3.org/2000/svg">
<path d="M40.9808 12.0945C40.4469 8.92198 38.876 6.0267 36.4736 3.82958C33.8042 1.38605 30.3339 0.0410767 26.72 0.0410767C23.9274 0.0410767 21.2066 0.841898 18.876 2.35114C16.9356 3.6037 15.3237 5.29775 14.184 7.28954C13.6912 7.19713 13.1779 7.1458 12.6645 7.1458C8.30108 7.1458 4.74872 10.6982 4.74872 15.0616C4.74872 15.6263 4.81032 16.1704 4.91299 16.7043C2.08958 18.7577 0.375 22.0637 0.375 25.5852C0.375 28.4292 1.43249 31.191 3.36268 33.3778C5.3442 35.616 7.96227 36.9405 10.7549 37.0945C10.7857 37.0945 10.8062 37.0945 10.837 37.0945H19.6666C20.4366 37.0945 21.0526 36.4784 21.0526 35.7084C21.0526 34.9384 20.4366 34.3224 19.6666 34.3224H10.8781C6.6789 34.0657 3.14707 30.0719 3.14707 25.575C3.14707 22.6694 4.70765 19.9589 7.22305 18.4908C7.80826 18.152 8.05467 17.4435 7.8288 16.807C7.62346 16.2526 7.52079 15.6674 7.52079 15.0411C7.52079 12.2074 9.83085 9.89734 12.6645 9.89734C13.2703 9.89734 13.8658 10 14.4202 10.2053C15.0978 10.4518 15.8473 10.1437 16.1553 9.49693C18.0752 5.42095 22.223 2.79262 26.7302 2.79262C32.7877 2.79262 37.7877 7.3306 38.3627 13.347C38.4243 13.9733 38.8966 14.4764 39.5126 14.5791C44.0814 15.3594 47.5311 19.5791 47.5311 24.3943C47.5311 29.4969 43.5167 33.9322 38.568 34.3121H31.0013C30.2313 34.3121 29.6152 34.9281 29.6152 35.6982C29.6152 36.4682 30.2313 37.0842 31.0013 37.0842H38.6194C38.6502 37.0842 38.681 37.0842 38.722 37.0842C41.8534 36.8583 44.7795 35.421 46.9561 33.0185C49.1224 30.6366 50.3031 27.577 50.3031 24.3943C50.2929 18.6345 46.3606 13.5113 40.9808 12.0945Z" fill="#606060"/>
<path d="M33.6602 26.8994C34.2043 26.3553 34.2043 25.4826 33.6602 24.9384L26.3193 17.5976C26.0626 17.3409 25.7033 17.1869 25.344 17.1869C24.9846 17.1869 24.6253 17.3306 24.3686 17.5976L17.0277 24.9384C16.4836 25.4826 16.4836 26.3553 17.0277 26.8994C17.2947 27.1664 17.654 27.3101 18.0031 27.3101C18.3522 27.3101 18.7115 27.1766 18.9785 26.8994L23.9579 21.9199V44.805C23.9579 45.575 24.5739 46.191 25.344 46.191C26.114 46.191 26.73 45.575 26.73 44.805V21.9199L31.7095 26.8994C32.2433 27.4436 33.116 27.4436 33.6602 26.8994Z" fill="#606060"/>
</svg>
