<svg xmlns="http://www.w3.org/2000/svg" xmlns:xlink="http://www.w3.org/1999/xlink"><symbol id="accepted" viewBox="0 0 20 20">
  <path fill="#49BE7F" fill-rule="evenodd" d="M8.75504113 13.1160016c-.07865873-.0439687-.15263983-.0993867-.21950722-.1662541l-2.82842713-2.8284272c-.39052429-.39052425-.39052429-1.02368923 0-1.41421352.39052429-.39052429 1.02368927-.39052429 1.41421356 0L9.3890873 10.9748737l4.2677669-4.26776692c.3905243-.39052429 1.0236893-.39052429 1.4142136 0 .3905243.39052429.3905243 1.02368927 0 1.41421356l-4.9497475 4.94974746c-.37492306.3749231-.97348743.389901-1.36627917.0449338zM10 20C4.4771525 20 0 15.5228475 0 10S4.4771525 0 10 0s10 4.4771525 10 10-4.4771525 10-10 10zm0-2c4.418278 0 8-3.581722 8-8s-3.581722-8-8-8-8 3.581722-8 8 3.581722 8 8 8z"/>
</symbol><symbol id="add" viewBox="0 0 416 416">
  <path xmlns="http://www.w3.org/2000/svg" fill="#4d6bbc" d="M208 0C93.1 0 0 93.1 0 208s93.1 208 208 208 208-93.1 208-208S322.9 0 208 0zm107 229h-86v86h-42v-86h-86v-42h86v-86h42v86h86v42z"/>
</symbol><symbol id="approved" viewBox="0 0 20 20">
  <path fill="#49BE7F" fill-rule="evenodd" d="M8.75504113 13.1160016c.39279174.3449672.99135611.3299893 1.36627917-.0449338l4.9497475-4.94974746c.3905243-.39052429.3905243-1.02368927 0-1.41421356-.3905243-.39052429-1.0236893-.39052429-1.4142136 0L9.3890873 10.9748737 7.12132034 8.70710678c-.39052429-.39052429-1.02368927-.39052429-1.41421356 0-.39052429.39052429-.39052429 1.02368927 0 1.41421352l2.82842713 2.8284272c.06686739.0668674.14084849.1222854.21950722.1662541zM10 20C4.4771525 20 0 15.5228475 0 10S4.4771525 0 10 0s10 4.4771525 10 10-4.4771525 10-10 10z"/>
</symbol><symbol id="arrow-down" viewBox="0 0 9.1 5.5">
  <path d="M4.5 3.1L7.3.3c.4-.4 1-.4 1.4 0s.4 1 0 1.4L5.2 5.2c-.4.4-1 .4-1.4 0L.3 1.7C-.1 1.3-.1.7.3.3c.4-.4 1-.4 1.4 0l2.8 2.8z"/>
</symbol><symbol id="bag" viewBox="0 0 512 512"><g><rect fill="none" height="319.4" stroke="#000000" stroke-linecap="round" stroke-linejoin="round" stroke-miterlimit="10" stroke-width="10" width="480" x="16" y="119"/><g><line fill="#000000" stroke="#000000" stroke-linecap="round" stroke-linejoin="round" stroke-miterlimit="10" stroke-width="10" x1="226.8" x2="16" y1="272.1" y2="189.9"/><line fill="#000000" stroke="#000000" stroke-linecap="round" stroke-linejoin="round" stroke-miterlimit="10" stroke-width="10" x1="496" x2="285.4" y1="189.9" y2="273.4"/><path d="    M258.9,316.8h-5.8c-13.2,0-24-10.7-24-24v-42.6h53.8v42.6C282.9,306,272.1,316.8,258.9,316.8z" fill="none" stroke="#000000" stroke-linecap="round" stroke-linejoin="round" stroke-miterlimit="10" stroke-width="10"/></g><path d="   M185.7,119V87.2c0-7.5,7.1-13.6,16-13.6h108.6c8.8,0,16,6.1,16,13.6V119" fill="none" stroke="#000000" stroke-linecap="round" stroke-linejoin="round" stroke-miterlimit="10" stroke-width="10"/><line fill="none" stroke="#000000" stroke-linecap="round" stroke-linejoin="round" stroke-miterlimit="10" stroke-width="10" x1="216.3" x2="295.7" y1="73.6" y2="73.6"/></g></symbol><symbol id="cc-license" viewBox="0 0 31 31">
  <path fill="#BFC2C9" fill-rule="evenodd" d="M15.5 31C6.9395864 31 0 24.060414 0 15.5 0 6.9395864 6.9395864 0 15.5 0S31 6.9395864 31 15.5C31 24.060414 24.0604136 31 15.5 31zm0-3C22.4035594 28 28 22.403559 28 15.5 28 8.5964406 22.4035594 3 15.5 3S3 8.5964406 3 15.5C3 22.403559 8.5964406 28 15.5 28zm-.7050781-14.574219l-2.4345703.439453c-.0820317-.48633-.268065-.852537-.5581055-1.098632-.2900405-.246095-.6665016-.369141-1.1293945-.369141-.6152375 0-1.1059552.2124-1.472168.637207-.3662128.424807-.5493164 1.135249-.5493164 2.131348 0 1.107427.1860333 1.889646.5581055 2.346679.3720721.457034.8715789.685547 1.4985351.685547.4687524 0 .8525376-.133299 1.1513672-.399902.2988296-.266603.509765-.725095.6328125-1.375488l2.4257813.413086c-.2519544 1.113286-.735348 1.954098-1.4501954 2.52246-.7148473.568363-1.6728455.85254-2.8740234.85254-1.3652412 0-2.4536092-.43066-3.2651367-1.291993-.8115275-.861332-1.2172852-2.053703-1.2172852-3.577148 0-1.541023.4072225-2.740718 1.2216797-3.599121.8144572-.8584029 1.9160087-1.2875979 3.3046875-1.2875979 1.1367244 0 2.040524.2446265 2.7114258.7338869.6709018.48926 1.1528306 1.234858 1.4458008 2.236816zm9.2607422 0l-2.4345703.439453c-.0820317-.48633-.268065-.852537-.5581055-1.098632-.2900405-.246095-.6665016-.369141-1.1293945-.369141-.6152375 0-1.1059553.2124-1.472168.637207-.3662128.424807-.5493164 1.135249-.5493164 2.131348 0 1.107427.1860333 1.889646.5581054 2.346679.3720722.457034.8715789.685547 1.4985352.685547.4687523 0 .8525376-.133299 1.1513672-.399902.2988296-.266603.509765-.725095.6328125-1.375488l2.4257812.413086c-.2519543 1.113286-.735348 1.954098-1.4501953 2.52246-.7148473.568363-1.6728455.85254-2.8740234.85254-1.3652412 0-2.4536092-.43066-3.2651367-1.291993-.8115275-.861332-1.2172852-2.053703-1.2172852-3.577148 0-1.541023.4072225-2.740718 1.2216797-3.599121.8144572-.8584029 1.9160087-1.2875979 3.3046875-1.2875979 1.1367244 0 2.040524.2446265 2.7114258.7338869.6709018.48926 1.1528305 1.234858 1.4458008 2.236816z"/>
</symbol><symbol id="consideration" viewBox="0 0 20 20">
  <path fill="#4B69BF" fill-rule="evenodd" d="M11 9.60356472c.0424651.03076508.0830574.0652791.1213203.10354206l2.8284272 2.82842712c.3905243.3905243.3905243 1.0236893 0 1.4142136-.3905243.3905243-1.0236893.3905243-1.4142136 0l-2.82842712-2.8284272c-.07209107-.072091-.13087408-.1524507-.17634902-.2380261C9.21497694 10.7151887 9 10.3826996 9 10V5c0-.55228475.44771525-1 1-1 .5522847 0 1 .44771525 1 1v4.60356472zM10 20C4.4771525 20 0 15.5228475 0 10S4.4771525 0 10 0s10 4.4771525 10 10-4.4771525 10-10 10zm0-2c4.418278 0 8-3.581722 8-8s-3.581722-8-8-8-8 3.581722-8 8 3.581722 8 8 8z"/>
</symbol><symbol id="hourglass" viewBox="0 0 1792 1792"><path d="M1536 128q0 261-106.5 461.5t-266.5 306.5q160 106 266.5 306.5t106.5 461.5h96q14 0 23 9t9 23v64q0 14-9 23t-23 9h-1472q-14 0-23-9t-9-23v-64q0-14 9-23t23-9h96q0-261 106.5-461.5t266.5-306.5q-160-106-266.5-306.5t-106.5-461.5h-96q-14 0-23-9t-9-23v-64q0-14 9-23t23-9h1472q14 0 23 9t9 23v64q0 14-9 23t-23 9h-96zm-128 0h-1024q0 206 85 384h854q85-178 85-384zm-57 1216q-54-141-145.5-241.5t-194.5-142.5h-230q-103 42-194.5 142.5t-145.5 241.5h910z"/></symbol><symbol id="life-ring" viewBox="0 0 496 496">
  <path fill="#4d6bbc" d="M248 496c137 0 248-111 248-248S385 0 248 0 0 111 0 248s111 248 248 248zm-103.4-76.7l53.4-53.4c31.8 13.5 68.1 13.5 100 0l53.4 53.4c-63.2 38.3-143.6 38.3-206.8 0zM328 248c0 44.1-35.9 80-80 80s-80-35.9-80-80 35.9-80 80-80 80 35.9 80 80zm91.3 103.4L365.9 298c13.5-31.8 13.5-68.1 0-100l53.4-53.4c38.3 63.2 38.3 143.6 0 206.8zM351.4 76.7L298 130.1c-31.8-13.5-68.1-13.5-100 0l-53.4-53.4c63.2-38.3 143.6-38.3 206.8 0zM76.7 144.6l53.4 53.4c-13.5 31.8-13.5 68.1 0 100l-53.4 53.4c-38.3-63.2-38.3-143.6 0-206.8z"/>
</symbol><symbol id="paper" viewBox="0 0 354.1 382.7">
  <path fill="#b5bcc4" d="M44.9.1c-.7.7-.3 338.4.4 338.7.3.1 3.7.2 7.4.2H59V15h280v171.7c0 183.6.1 175.9-1.7 175.9-.5 0-1.9 1.6-1.9 2.2 0 .3-.3.6-.6.6-.8 0-2.2 1.2-2.2 1.9 0 .3-.4.5-.9.5s-1.7.3-2.6.6c-2.1.8-300.2.9-303 .2-.9-.2-2.2-.5-2.9-.6-.9-.1-1.3-.4-1.3-1 0-.4-.3-.8-.6-.8-.8 0-2.2-1.2-2.2-1.9 0-.3-.2-.5-.6-.5-.5 0-1.8-2.2-1.8-3.2 0-.2-.2-.4-.5-.4-1 0-1-2.6-1-144.3v-142h14v-15H0v150.5c0 130.1.1 150.5.6 150.5.4 0 .7.7.8 2.2.2 1.2.4 2.2.6 2.2s.4.5.4 1.2c0 .8.2 1.2.6 1.2.6 0 1 .8 1 2 0 .4.2.8.4.8s.5.4.6 1c.1.6.5 1 .8 1s.6.3.6.6.3.6.6.6.6.3.6.7.5.9 1.2 1.2c.7.3 1.2.8 1.2 1.3s.3.8.8.8c.4 0 1 .3 1.4.6.3.3.9.6 1.2.6s.6.3.6.6.5.7 1.2.8 1.2.4 1.2.6.6.4 1.4.4c.9 0 1.4.2 1.4.6 0 .8.9 1 3.6 1 1.3 0 2.4.2 2.4.4 0 .3 50.9.4 151.8.4 88.5 0 151.8-.1 151.8-.4 0-.2 1.4-.4 3-.5 2.4-.1 3.1-.3 3.4-.8.2-.4.9-.7 1.6-.7.6 0 1.2-.2 1.2-.4s.6-.5 1.4-.6c.8-.1 1.4-.5 1.4-.8s.7-.8 1.6-1.2 1.6-.9 1.6-1.2.3-.7.7-.8c1-.4 2.1-1.4 2.1-2 0-.3.3-.5.6-.5s.9-.7 1.3-1.6c.4-.9 1-1.7 1.4-1.8.5-.1.7-.6.7-1.4 0-.7.2-1.2.4-1.2s.5-.5.6-1.2.5-1.2.9-1.2c.5 0 .6-.5.6-2 0-1.1.2-2.1.4-2.2.3-.2.4-60.7.4-180.2V0H199.7C114.7 0 45 .1 44.9.3m44.4 59c-.1.1-.3 3.5-.3 7.5V74h117V59h-58.2c-32.1 0-58.4.2-58.5.3M90 141v7h221v-15H90v8m-.9 66.2c-.1.3-.1 3.4-.1 6.9v6.9h88.3l87.7.1v-14.2h-87.6c-71.2 0-87.6.1-87.8.5m.7 72.9c-.1.1-.3 3.3-.3 7v6.7h221v-13.5l-1.2-.3c-1.7-.3-219.2-.2-219.5.1"/>
</symbol><symbol id="pdf-file" viewBox="0 0 1792 1792"><path d="M1596 380q28 28 48 76t20 88v1152q0 40-28 68t-68 28h-1344q-40 0-68-28t-28-68v-1600q0-40 28-68t68-28h896q40 0 88 20t76 48zm-444-244v376h376q-10-29-22-41l-313-313q-12-12-41-22zm384 1528v-1024h-416q-40 0-68-28t-28-68v-416h-768v1536h1280zm-514-593q33 26 84 56 59-7 117-7 147 0 177 49 16 22 2 52 0 1-1 2l-2 2v1q-6 38-71 38-48 0-115-20t-130-53q-221 24-392 83-153 262-242 262-15 0-28-7l-24-12q-1-1-6-5-10-10-6-36 9-40 56-91.5t132-96.5q14-9 23 6 2 2 2 4 52-85 107-197 68-136 104-262-24-82-30.5-159.5t6.5-127.5q11-40 42-40h22q23 0 35 15 18 21 9 68-2 6-4 8 1 3 1 8v30q-2 123-14 192 55 164 146 238zm-576 411q52-24 137-158-51 40-87.5 84t-49.5 74zm398-920q-15 42-2 132 1-7 7-44 0-3 7-43 1-4 4-8-1-1-1-2t-.5-1.5-.5-1.5q-1-22-13-36 0 1-1 2v2zm-124 661q135-54 284-81-2-1-13-9.5t-16-13.5q-76-67-127-176-27 86-83 197-30 56-45 83zm646-16q-24-24-140-24 76 28 124 28 14 0 18-1 0-1-2-3z"/></symbol><symbol id="rejected" viewBox="0 0 20 20">
  <path fill="#858E9B" fill-rule="evenodd" d="M11.4142136 9.94974747l2.8284271 2.82842713c.3905243.3905243.3905243 1.0236893 0 1.4142136-.3905243.3905242-1.0236893.3905242-1.4142136 0L10 11.363961l-2.82842712 2.8284272c-.3905243.3905242-1.02368928.3905242-1.41421357 0-.39052429-.3905243-.39052429-1.0236893 0-1.4142136l2.82842713-2.82842713-2.82842713-2.82842713c-.39052429-.39052429-.39052429-1.02368927 0-1.41421356.39052429-.39052429 1.02368927-.39052429 1.41421357 0L10 8.53553391l2.8284271-2.82842713c.3905243-.39052429 1.0236893-.39052429 1.4142136 0 .3905243.39052429.3905243 1.02368927 0 1.41421356l-2.8284271 2.82842713zM10 20C4.4771525 20 0 15.5228475 0 10S4.4771525 0 10 0s10 4.4771525 10 10-4.4771525 10-10 10zm0-2c4.418278 0 8-3.581722 8-8s-3.581722-8-8-8-8 3.581722-8 8 3.581722 8 8 8z"/>
</symbol><symbol id="right-arrow" viewBox="0 0 408 408">
<g>
	<g id="arrow-back">
		<path d="M408,178.5H96.9L239.7,35.7L204,0L0,204l204,204l35.7-35.7L96.9,229.5H408V178.5z"/>
	</g>
</g>
<g>
</g>
<g>
</g>
<g>
</g>
<g>
</g>
<g>
</g>
<g>
</g>
<g>
</g>
<g>
</g>
<g>
</g>
<g>
</g>
<g>
</g>
<g>
</g>
<g>
</g>
<g>
</g>
<g>
</g>
</symbol><symbol id="search-icon" viewBox="0 0 23.2 22.2">
  <path d="M16.4 14l6.8 6.8-1.4 1.4-6.7-6.7C13.5 17.1 11.4 18 9 18c-5 0-9-4-9-9s4-9 9-9 9 4 9 9c0 1.9-.6 3.6-1.6 5zM9 16c3.9 0 7-3.1 7-7s-3.1-7-7-7-7 3.1-7 7 3.1 7 7 7z"/>
</symbol></svg>