<svg width="20" height="20" viewBox="0 0 20 20" fill="none" xmlns="http://www.w3.org/2000/svg">
<path fill-rule="evenodd" clip-rule="evenodd" d="M19.9048 7.224C20.0744 7.7468 19.9356 8.3092 19.5424 8.6924L16.0428 12.104C15.8936 12.2496 15.8252 12.4588 15.8604 12.664L16.6868 17.4808C16.7796 18.022 16.5616 18.5584 16.1172 18.8816C15.866 19.0644 15.5716 19.1568 15.276 19.1568C15.0484 19.1568 14.8196 19.102 14.6084 18.9908L10.2824 16.7164C10.098 16.6196 9.87801 16.6196 9.69361 16.7164L5.36801 18.9908C4.88121 19.2472 4.30321 19.2052 3.85921 18.8816C3.41481 18.5584 3.19681 18.022 3.28961 17.4808L4.11561 12.6636C4.15081 12.4588 4.08241 12.2492 3.93321 12.1036L0.433609 8.6924C0.0404085 8.3092 -0.0983915 7.7468 0.0712085 7.224C0.241209 6.7012 0.684009 6.328 1.22761 6.2492L6.06441 5.546C6.27041 5.516 6.44881 5.3868 6.54081 5.2L8.70361 0.817199C8.94641 0.324799 9.43921 0.0187988 9.98801 0.0187988C10.5372 0.0187988 11.03 0.324799 11.2728 0.817199L13.4352 5.2C13.5272 5.3868 13.7052 5.516 13.9112 5.546L18.748 6.2488C19.292 6.328 19.7348 6.7012 19.9048 7.224ZM15.8984 17.616L15.0724 12.7992C14.9924 12.334 15.1464 11.86 15.484 11.5308L18.9836 8.1196C19.16 7.9476 19.2196 7.7052 19.1436 7.4712C19.0676 7.2368 18.8768 7.076 18.6332 7.0404L13.7964 6.3376C13.3296 6.27 12.9264 5.9772 12.718 5.554L10.5552 1.1712C10.446 0.950399 10.234 0.818799 9.98761 0.818799C9.74161 0.818799 9.52921 0.950399 9.42041 1.1712L7.25761 5.554C7.04921 5.9772 6.64561 6.27 6.17881 6.3376L1.34241 7.0404C1.09881 7.076 0.908009 7.2368 0.832009 7.4712C0.755609 7.7052 0.815609 7.9476 0.992009 8.1196L4.49201 11.5312C4.82961 11.86 4.98361 12.3344 4.90401 12.7992L4.07801 17.616C4.03681 17.8588 4.13041 18.09 4.32961 18.2348C4.52881 18.3792 4.77721 18.3968 4.99601 18.2832L9.32121 16.0088C9.53001 15.8992 9.75921 15.844 9.98801 15.844C10.2168 15.844 10.4464 15.8992 10.6548 16.0084L14.9808 18.2832C15.1988 18.3968 15.4472 18.3792 15.6468 18.2348C15.846 18.09 15.94 17.8584 15.8984 17.616Z" fill="black"/>
</svg>
