<svg width="20" height="19" viewBox="0 0 20 19" fill="none" xmlns="http://www.w3.org/2000/svg">
<path fill-rule="evenodd" clip-rule="evenodd" d="M15.5614 19.0007C15.4034 19.0007 15.2444 18.9637 15.0984 18.8877L9.99938 16.2237L4.90138 18.8877C4.56338 19.0627 4.15538 19.0327 3.84938 18.8087C3.54138 18.5847 3.38838 18.2057 3.45338 17.8307L4.42438 12.2027L0.304379 8.21772C0.0303789 7.95272 -0.0686211 7.55472 0.0483789 7.19072C0.165379 6.82872 0.478379 6.56372 0.856379 6.50972L6.55638 5.68172L9.10438 0.555715C9.44238 -0.124285 10.5574 -0.124285 10.8954 0.555715L13.4434 5.68172L19.1434 6.50972C19.5214 6.56372 19.8344 6.82872 19.9514 7.19072C20.0684 7.55472 19.9694 7.95272 19.6954 8.21772L15.5754 12.2027L16.5464 17.8307C16.6114 18.2057 16.4574 18.5847 16.1504 18.8087C15.9764 18.9367 15.7694 19.0007 15.5614 19.0007Z" fill="#222B45"/>
</svg>
